<?xml version="1.0" encoding="UTF-8"?>
<svg id="Layer_2" data-name="Layer 2" xmlns="http://www.w3.org/2000/svg" viewBox="0 0 1452.26 927.84">
  <defs>
    <style>
      .cls-1 {
        fill: #6a1310;
      }
    </style>
  </defs>
  <g id="Layer_1-2" data-name="Layer 1">
    <g>
      <rect class="cls-1" x="968.18" y="847.15" width="40.34" height="40.34"/>
      <rect class="cls-1" x="1210.22" y="847.15" width="40.34" height="40.34"/>
      <rect class="cls-1" x="685.79" y="806.81" width="40.34" height="40.34"/>
      <rect class="cls-1" x="1048.86" y="806.81" width="40.34" height="40.34"/>
      <rect class="cls-1" x="1129.54" y="806.81" width="40.34" height="40.34"/>
      <path class="cls-1" d="M1008.52,766.47h-80.68v-40.34h40.34v-40.34h40.34v-40.34h40.34v-40.34h121.02v-40.34h-40.34v-40.34h-40.34v-40.34h40.34v-40.34h-80.68v40.34h-40.34v80.68h-40.34v80.68h-40.34v-80.68h40.34v-40.34h-40.34v-80.68h80.68v-40.34h-80.68v-121.02h40.34V121.02h-40.34V0H0v927.84h927.84v-80.68h40.34v-40.34h80.68v-40.34h-40.34ZM887.5,363.07h0v-80.68h-40.34v80.68h-40.34v40.34h-40.34v-40.34h-80.68v40.34h40.34v80.68h40.34v-40.34h40.34v40.34h40.34v-40.34h40.34v40.34h0v40.34h-80.68v-40.34h-40.34v40.34h-40.34v40.34h40.34v40.34h80.68v40.34h40.34v40.34h0v40.34h0v80.68h-40.34v40.34h40.34v40.34H40.34V40.34h766.47v40.34h40.34v-40.34h40.34v80.68h-80.68v40.34h40.34v40.34h40.34v-40.34h0v201.7Z"/>
      <polygon class="cls-1" points="806.81 726.13 766.47 726.13 766.47 766.47 766.47 806.81 806.81 806.81 806.81 766.47 847.15 766.47 887.49 766.47 887.49 726.13 847.15 726.13 806.81 726.13"/>
      <polygon class="cls-1" points="1250.56 726.13 1210.22 726.13 1169.88 726.13 1169.88 766.47 1169.88 806.81 1210.22 806.81 1250.56 806.81 1290.9 806.81 1290.9 766.47 1250.56 766.47 1250.56 726.13"/>
      <polygon class="cls-1" points="645.45 685.79 605.11 685.79 564.77 685.79 564.77 726.13 605.11 726.13 645.45 726.13 645.45 766.47 685.79 766.47 685.79 726.13 726.13 726.13 726.13 685.79 685.79 685.79 645.45 685.79"/>
      <polygon class="cls-1" points="1129.54 685.79 1089.2 685.79 1048.86 685.79 1048.86 726.13 1089.2 726.13 1089.2 766.47 1129.54 766.47 1129.54 726.13 1169.88 726.13 1169.88 685.79 1129.54 685.79"/>
      <rect class="cls-1" x="645.45" y="605.11" width="40.34" height="40.34"/>
      <polygon class="cls-1" points="726.13 645.45 726.13 685.79 766.47 685.79 806.81 685.79 806.81 645.45 766.47 645.45 766.47 605.11 726.13 605.11 726.13 645.45"/>
      <polygon class="cls-1" points="1210.22 645.45 1250.56 645.45 1250.56 605.11 1250.56 564.77 1210.22 564.77 1210.22 605.11 1169.88 605.11 1169.88 645.45 1210.22 645.45"/>
      <polygon class="cls-1" points="1331.24 645.45 1331.24 685.79 1371.58 685.79 1371.58 645.45 1371.58 605.11 1331.24 605.11 1331.24 645.45"/>
      <polygon class="cls-1" points="524.43 484.09 524.43 524.43 524.43 564.77 564.77 564.77 605.11 564.77 605.11 524.43 605.11 484.09 564.77 484.09 524.43 484.09"/>
      <rect class="cls-1" x="1411.92" y="524.43" width="40.34" height="40.34"/>
      <rect class="cls-1" x="685.79" y="484.09" width="40.34" height="40.34"/>
      <rect class="cls-1" x="1169.88" y="484.09" width="40.34" height="40.34"/>
      <polygon class="cls-1" points="1290.9 484.09 1290.9 524.43 1331.24 524.43 1371.58 524.43 1371.58 484.09 1331.24 484.09 1290.9 484.09"/>
      <rect class="cls-1" x="484.09" y="443.75" width="40.34" height="40.34"/>
      <rect class="cls-1" x="605.11" y="443.75" width="40.34" height="40.34"/>
      <rect class="cls-1" x="1210.22" y="443.75" width="40.34" height="40.34"/>
      <rect class="cls-1" x="1371.58" y="443.75" width="40.34" height="40.34"/>
      <polygon class="cls-1" points="1169.88 403.41 1169.88 443.75 1210.22 443.75 1210.22 403.41 1250.56 403.41 1290.9 403.41 1290.9 363.07 1250.56 363.07 1210.22 363.07 1169.88 363.07 1129.54 363.07 1129.54 403.41 1169.88 403.41"/>
      <polygon class="cls-1" points="968.18 363.07 1008.52 363.07 1008.52 403.41 1048.86 403.41 1089.2 403.41 1089.2 363.07 1129.54 363.07 1129.54 322.73 1129.54 282.38 1169.88 282.38 1210.22 282.38 1210.22 242.04 1169.88 242.04 1169.88 201.7 1129.54 201.7 1129.54 242.04 1089.2 242.04 1048.86 242.04 1048.86 282.38 1008.52 282.38 968.18 282.38 968.18 322.73 968.18 363.07"/>
      <polygon class="cls-1" points="1411.92 282.38 1411.92 322.73 1411.92 363.07 1411.92 403.41 1452.26 403.41 1452.26 363.07 1452.26 322.73 1452.26 282.38 1411.92 282.38"/>
      <rect class="cls-1" x="564.77" y="242.04" width="40.34" height="40.34"/>
      <polygon class="cls-1" points="726.13 201.7 726.13 242.04 766.47 242.04 766.47 282.38 806.81 282.38 806.81 242.04 806.81 201.7 766.47 201.7 726.13 201.7"/>
      <polygon class="cls-1" points="1210.22 242.04 1250.56 242.04 1290.9 242.04 1290.9 201.7 1290.9 161.36 1250.56 161.36 1210.22 161.36 1210.22 201.7 1210.22 242.04"/>
      <rect class="cls-1" x="1371.58" y="201.7" width="40.34" height="40.34"/>
      <rect class="cls-1" x="726.13" y="121.02" width="40.34" height="40.34"/>
      <polygon class="cls-1" points="1129.54 121.02 1089.2 121.02 1048.86 121.02 1008.52 121.02 1008.52 161.36 1048.86 161.36 1048.86 201.7 1089.2 201.7 1129.54 201.7 1129.54 161.36 1129.54 121.02"/>
      <polygon class="cls-1" points="1169.88 161.36 1210.22 161.36 1210.22 121.02 1210.22 80.68 1169.88 80.68 1129.54 80.68 1129.54 121.02 1169.88 121.02 1169.88 161.36"/>
      <rect class="cls-1" x="1290.9" y="121.02" width="40.34" height="40.34"/>
      <rect class="cls-1" x="1331.24" y="80.68" width="40.34" height="40.34"/>
      <rect class="cls-1" x="968.18" width="40.34" height="40.34"/>
    </g>
  </g>
</svg>
