<svg xmlns="http://www.w3.org/2000/svg" width="1024" height="1024" viewBox="0 0 40 40" shape-rendering="crispEdges">
  <g fill="#ff1724">
    <path d="
      M5 10h19v1H5z
      M5 11h1v18H5z
      M23 11h1v18h-1z
      M5 28h19v1H5z
    " />
    <g transform="translate(5 0)">
      <g transform="translate(-2 3)">
        <path d="
          M19 7h3v1h-3z
          M24 7h1v1h-1z
          M19 8h1v1h-1z
          M21 8h1v1h-1z
          M24 8h1v1h-1z
          M18 9h4v1h-4z
          M23 9h3v1h-3z
          M27 9h2v1h-2z
          M20 10h1v1h-1z
          M22 10h1v1h-1z
          M24 10h2v1h-2z
          M28 10h1v1h-1z
          M18 11h3v1h-3z
          M22 11h1v1h-1z
          M24 11h1v1h-1z
          M26 11h3v1h-3z
          M31 11h1v1h-1z
          M19 12h1v1h-1z
          M22 12h1v1h-1z
          M24 12h3v1h-3z
          M30 12h1v1h-1z
          M12 13h1v1h-1z
          M15 13h1v1h-1z
          M20 13h1v1h-1z
          M24 13h4v1h-4z
          M30 13h1v1h-1z
          M18 14h4v1h-4z
          M24 14h4v1h-4z
          M30 14h1v1h-1z
          M17 15h8v1h-8z
          M27 15h4v1h-4z
          M14 16h1v1h-1z
          M16 16h1v1h-1z
          M18 16h2v1h-2z
          M24 16h2v1h-2z
          M27 16h2v1h-2z
          M30 16h1v1h-1z
          M15 17h2v1h-2z
          M18 17h1v1h-1z
          M20 17h3v1h-3z
          M24 17h4v1h-4z
          M29 17h1v1h-1z
          M15 18h2v1h-2z
          M19 18h4v1h-4z
          M24 18h1v1h-1z
          M26 18h3v1h-3z
          M31 18h1v1h-1z
          M18 19h1v1h-1z
          M20 19h3v1h-3z
          M24 19h4v1h-4z
          M30 19h1v1h-1z
          M17 20h4v1h-4z
          M23 20h3v1h-3z
          M27 20h2v1h-2z
          M18 21h1v1h-1z
          M21 21h4v1h-4z
          M27 21h1v1h-1z
          M29 21h1v1h-1z
          M19 22h3v1h-3z
          M23 22h4v1h-4z
          M28 22h2v1h-2z
          M19 23h1v1h-1z
          M22 23h1v1h-1z
          M25 23h2v1h-2z
          M30 23h1v1h-1z
          M21 24h4v1h-4z
          M27 24h2v1h-2z
          M19 25h1v1h-1z
          M22 25h4v1h-4z
          M28 25h3v1h-3z
          M20 26h1v1h-1z
          M23 26h1v1h-1z
          M27 26h1v1h-1z
          M29 26h1v1h-1z
          M23 27h1v1h-1z
          M26 27h1v1h-1z
          M29 27h1v1h-1z
        " />
      </g>
    </g>
  </g>
</svg>
