<?xml version="1.0" encoding="UTF-8" standalone="no"?>
<!DOCTYPE svg PUBLIC "-//W3C//DTD SVG 1.1//EN" "http://www.w3.org/Graphics/SVG/1.1/DTD/svg11.dtd">
<svg width="100%" height="100%" viewBox="0 0 3364 4418" version="1.1" xmlns="http://www.w3.org/2000/svg" xmlns:xlink="http://www.w3.org/1999/xlink" xml:space="preserve" xmlns:serif="http://www.serif.com/" style="fill-rule:evenodd;clip-rule:evenodd;stroke-linejoin:round;stroke-miterlimit:2;">
    <g transform="matrix(1,0,0,1,31021.695797,7445.500169)">
        <g transform="matrix(11.862995,0,0,11.862995,-28956.048831,-6066.476952)">
            <path d="M0,139.403L-3.022,139.401L-2.41,149.068L0,139.403ZM17.533,66.265L-12.689,57.804L1.821,130.935L10.469,100L17.533,66.265ZM-75.56,-103.587C-81.821,-100.139 -84.108,-95.061 -76.57,-91.389C-67.648,-87.042 -58.939,-92.864 -53.304,-99.651C-55.566,-103.438 -59.732,-105.493 -64.069,-105.999C-59.012,-96.428 -76.653,-91.705 -75.56,-103.587M-79.785,141.213C-79.197,129.154 -76.793,117.235 -75.56,105.242C-75.072,100.498 -75.463,95.158 -74.942,90.145C-73.67,77.905 -71.723,65.643 -69.512,53.572C-80.137,53.532 -90.906,52.057 -100.995,56.371C-102.72,71.84 -104.132,87.356 -105.77,102.837C-107.057,114.999 -107.335,128.282 -110.788,140.13C-111.341,142.03 -114.313,150.707 -115.295,144.539C-116.958,134.091 -115.836,118.876 -116.624,107.634C-116.696,106.6 -116.562,105.636 -117.565,104.949L-125.122,143.634L-126.929,143.634L-128.748,103.735C-130.345,103.606 -129.748,103.673 -129.932,104.656C-132.225,116.908 -132.926,130.051 -134.792,142.423L-136.637,142.154L-137.207,140.911L-139.927,103.145L-146.258,141.531L-147.485,141.495L-148.697,104.342C-149.959,104.701 -149.96,106.294 -150.223,107.344C-152.77,117.555 -152.963,129.089 -155.686,139.356C-158.377,143.876 -159.363,134.543 -159.494,132.976C-160.214,124.367 -158.694,115.321 -160.182,106.763L-162.402,114.507C-164.582,120.509 -163.274,130.51 -165.157,135.929C-165.416,136.674 -165.977,137.073 -166.522,137.574C-167.333,137.57 -167.925,133.918 -168.027,133.047C-170.273,113.852 -171.173,94.301 -172.876,75.033C-173.521,67.729 -176.585,63.411 -169.808,57.537C-165.266,53.6 -159.51,50.968 -154.771,47.791C-132.97,33.175 -113.459,14.895 -89.45,3.702L-121.001,9.632C-132.567,11.808 -146.268,15.166 -158.033,15.511C-160.252,15.576 -167.111,15.631 -163.986,12.585L-128.406,0.414L-126.934,-1.433L-166.217,2.188L-165.181,0.51C-153.568,-3.663 -141.538,-6.998 -130.073,-11.557C-129.153,-11.923 -128.44,-11.207 -128.748,-12.917C-134.747,-13.641 -164.061,-5.878 -167.439,-7.773C-169.072,-8.688 -165.323,-10.05 -164.999,-10.188C-153.993,-14.858 -141.864,-17.572 -131.174,-22.894L-168.844,-17.839L-169.844,-19.258C-169.408,-19.879 -168.848,-20.27 -168.195,-20.637C-160.389,-25.028 -145.226,-26.192 -136.868,-30.413C-135.997,-30.852 -135.149,-30.974 -135.397,-32.26L-171.658,-28.034C-172.035,-30.596 -169.149,-31.476 -167.229,-32.365C-158.721,-36.307 -148.585,-37.143 -140.223,-41.631C-140.239,-42.333 -149.662,-41.38 -150.732,-41.255C-156.349,-40.595 -164.635,-37.894 -169.563,-37.811C-170.098,-37.802 -172.179,-38.139 -171.656,-39.206C-170.968,-40.038 -169.972,-40.373 -169.048,-40.833C-153.093,-48.764 -132.379,-55.414 -115.466,-62.202C-108.419,-65.03 -103.439,-69.816 -95.901,-64.804C-87.096,-58.95 -79.916,-50.142 -71.281,-44.091C-70.547,-43.576 -64.342,-39.812 -64.072,-40.123L-64.171,-70.244C-90.554,-81.823 -118.128,-90.98 -144.441,-102.7C-145.227,-103.05 -150.35,-104.856 -149.293,-106.001C-140.236,-107.436 -131.278,-109.838 -122.222,-111.269C-100.391,-114.718 -69.54,-116.694 -47.447,-116.159C-42.782,-116.046 -37.838,-114.722 -33.062,-114.95C-30.353,-114.15 -31.631,-107.39 -31.423,-105.104C-30.32,-92.98 -31.457,-82.956 -30.85,-71.224C-30.196,-58.6 -27.357,-45.61 -27.192,-32.867C-21.912,-36.065 -17.015,-39.918 -11.667,-43.025C-6.522,-46.014 -0.873,-48.155 4.186,-51.35C11.762,-56.134 17.857,-62.977 25.675,-67.264C48.131,-60.205 68.418,-48.055 90.26,-39.409C93.778,-38.017 108.586,-34.173 109.337,-31.234C109.849,-29.233 106.999,-28.249 105.493,-28.135L68.912,-33.468C68.579,-31.86 69.32,-32.429 70.102,-31.968C79.522,-26.424 92.623,-22.763 101.636,-16.936C104.6,-15.02 106.528,-12.556 101.555,-11.956C99.849,-11.75 97.811,-12.308 96.088,-12.599C84.716,-14.515 73.185,-19.046 61.656,-20.168C62.579,-18.702 64.75,-17.979 66.274,-17.237C77.085,-11.975 88.518,-7.827 99.334,-2.55C101.975,-1.236 100.668,0.968 98.543,1.952L57.424,-9.287L60.026,-6.757L96.11,12.162C97.989,14.144 94.962,16.195 92.931,15.376L51.383,-0.224C50.444,0.622 56.187,3.818 56.87,4.256C68.473,11.7 80.748,18.194 92.447,25.495C93.858,26.862 93.897,27.815 92.042,28.696L7.86,-5.056C13.493,3.351 20.803,10.492 26.858,18.552C30.444,23.325 30.858,24.753 35.378,29.375C45.457,39.68 52.253,49.832 61.345,60.226C66.713,66.364 73.601,71.503 79.458,77.17C81.353,80.191 79.188,88.052 78.39,91.761C74.068,111.863 66.105,132.047 61.819,152.559C61.252,155.277 60.776,166.278 58.234,167.121C54.196,168.459 54.032,162.558 53.805,159.641C53.021,149.601 55.175,139.444 54.429,129.399C54.349,128.318 54.597,127.443 53.495,126.719L42.605,161.754C42.016,163.078 40.613,166.497 38.652,165.128C36.819,162.229 37.648,158.654 37.452,155.393L39.892,122.478L38.541,123.239L27.52,162.985C25.558,165.022 22.782,161.996 23.015,159.73L28.408,120.06L26.293,121.868L12.756,161.392L11.206,161.781C9.778,161.602 9.043,160.094 9.326,158.729C11.442,145.171 16.424,130.75 18.064,117.262C18.218,115.996 18.65,114.871 16.935,115.223L-1.637,160.931C-0.499,188.913 7.142,216.668 9.668,244.276C9.888,246.679 10.888,253.678 9.728,255.206L8.206,256.097L-58.632,254.852L-59.841,229.459L-13.902,230.063L-25.986,140.001L-47.752,140.606L-41.1,227.649L-60.745,227.649C-61.611,228.18 -61.574,228.854 -61.68,229.731C-62.014,232.491 -59.958,246.191 -61.128,246.915L-102.185,247.332L-102.778,246.066L-100.874,225.899L-69.208,223.417L-67.755,222.422L-71.322,141.213L-79.785,141.213Z" style="fill:white;fill-rule:nonzero;"/>
        </g>
    </g>
</svg>
