<?xml version="1.0" encoding="UTF-8" standalone="no"?>
<!DOCTYPE svg PUBLIC "-//W3C//DTD SVG 1.1//EN" "http://www.w3.org/Graphics/SVG/1.1/DTD/svg11.dtd">
<svg width="100%" height="100%" viewBox="0 0 2500 4018" version="1.1" xmlns="http://www.w3.org/2000/svg" xmlns:xlink="http://www.w3.org/1999/xlink" xml:space="preserve" xmlns:serif="http://www.serif.com/" style="fill-rule:evenodd;clip-rule:evenodd;stroke-linejoin:round;stroke-miterlimit:2;">
    <g transform="matrix(1,0,0,1,44040.587471,7156.55758)">
        <g transform="matrix(11.113325,0,0,11.113325,-43162.498905,-6228.054737)">
            <path d="M0,190.624C16.898,213.617 75.701,198.952 91.405,178.215C105.685,159.36 87.907,146.02 69.541,144.471C74.557,162.962 60.382,185.105 39.661,179.565C28.463,176.572 22.078,163.445 22.498,152.539C9.43,158.093 -11.457,175.034 0,190.624M-8.646,132.144C-11.734,124.309 -16.347,114.873 -18.64,107.143C-22.104,95.47 -17.976,89.535 -15.774,78.567C-9.603,47.826 -7.196,15.479 -1.215,-15.202C1.824,-30.788 11.947,-58.728 29.305,-63.052C47.314,-67.538 48.903,-45.485 47.066,-33.296C45.351,-21.913 45.099,-13.159 44.078,-1.993C42.705,13.029 39.141,26.01 38.814,41.803C38.799,42.549 38.634,44.882 39.274,45.26C40.311,41.74 40.906,38.166 41.368,34.52C44.135,12.698 49.072,-11.809 50.627,-33.313C51.145,-40.483 50.46,-48.576 47.319,-55.026C46.589,-56.525 44.062,-59.402 44.35,-60.834C44.805,-63.098 52.299,-71.404 54.37,-73.258C67.63,-85.127 81.682,-87.32 96.723,-76.726C111.551,-66.283 105.842,-40.111 103.229,-24.671C100.46,-8.313 97.635,6.861 95.72,23.453C94.582,33.304 91.99,47.669 92.527,57.191C92.62,58.829 94.219,61.28 94.615,59.662C95.07,57.801 94.512,53.803 94.738,51.508C97.037,28.077 101.931,4.494 105.443,-18.713C107.045,-29.296 107.98,-39.827 108.56,-50.498C113.621,-53.555 120.267,-54.636 126.085,-53.89C143.573,-51.646 146.431,-40.782 145.824,-25.196C144.695,3.804 140.137,32.802 136.339,61.617C133.308,84.615 130.81,109.135 126.2,131.89C122.666,149.334 116.826,167.437 112.419,184.757L88.691,277.944C84.609,277.267 80.454,276.881 76.37,276.189C59.298,273.298 41.945,270.373 24.844,267.676C14.29,266.012 2.426,265.23 -7.841,262.995C-12.234,262.039 -12.841,261.811 -15.352,258.308C-29.732,238.239 -42.542,215.974 -56.489,195.451C-61.875,187.526 -66.381,183.606 -69.222,173.616C-76.191,149.121 -82.813,108.308 -76.432,83.701C-73.345,71.797 -55.445,65.4 -44.246,68.058C-22.572,73.204 -25.324,94.791 -20.296,111.516C-18.086,118.867 -13.656,127.712 -8.864,133.65C-8.731,134.781 -7.938,136.144 -6.691,136.277C-7.03,134.806 -8.159,133.379 -8.646,132.144" style="fill:white;fill-rule:nonzero;"/>
        </g>
    </g>
</svg>
