<?xml version="1.0" encoding="UTF-8" standalone="no"?>
<!DOCTYPE svg PUBLIC "-//W3C//DTD SVG 1.1//EN" "http://www.w3.org/Graphics/SVG/1.1/DTD/svg11.dtd">
<svg width="100%" height="100%" viewBox="0 0 2969 4690" version="1.1" xmlns="http://www.w3.org/2000/svg" xmlns:xlink="http://www.w3.org/1999/xlink" xml:space="preserve" xmlns:serif="http://www.serif.com/" style="fill-rule:evenodd;clip-rule:evenodd;stroke-linejoin:round;stroke-miterlimit:2;">
    <g transform="matrix(1,0,0,1,33589.935273,972.693027)">
        <g transform="matrix(9.686418,0,0,9.686418,-55286.949522,-26062.674962)">
            <g transform="matrix(-0.5606,0.3906,0.3906,0.5606,2515.853888,2663.082452)">
                <path d="M-50.519,-94.724C-58.528,-89.613 -72.597,-76.497 -75.981,-67.546C-85.466,-42.453 -71.657,-16.879 -50.519,-2.914C-36.532,6.328 1.336,4.399 14.982,-5.32C80.137,-51.724 13.664,-135.686 -50.519,-94.724" style="fill:white;fill-rule:nonzero;"/>
            </g>
            <g transform="matrix(0.683258,0,0,0.683258,2473.457649,2839.915724)">
                <path d="M0,125.642C0.12,82.934 -3.946,40.334 -4.352,-2.385C-4.486,-16.476 -5.583,-27.817 -6.432,-41.798C-8.345,-73.298 -7.297,-103.862 -12.081,-135.301C-13.956,-147.622 -23.046,-184.522 -31.503,-192.643C-36.925,-197.85 -58.043,-204.518 -65.867,-206.256C-95.117,-212.753 -132.913,-218.897 -162.622,-216.094C-200.37,-212.534 -262.145,-201.969 -282.774,-166.728C-289.657,-154.968 -299.259,-140.756 -304.092,-128.34C-323.326,-78.924 -345.43,6.032 -341.255,58.47C-340.902,62.895 -341.028,68.386 -335.944,69.155C-329.3,70.159 -318.128,69.048 -310.841,69.636C-309.782,69.721 -305.154,70.392 -304.893,71.339C-307.777,86.319 -306.869,100.916 -307.054,116.047C-307.238,131.077 -308.184,146.684 -307.088,161.837C-306.039,176.321 -305.103,175.8 -291.346,178.08C-279.833,179.987 -268.861,179.646 -257.532,180.516C-243.94,181.561 -230.235,182.572 -216.679,183.904C-214.264,186.008 -215.657,237.175 -215.452,245.052C-214.858,267.831 -215.006,295.314 -213.263,317.494C-212.974,321.173 -210.558,334.589 -207.895,336.64C-204.247,339.45 -199.851,336.874 -195.722,337.207C-182.274,338.292 -168.744,341.874 -155.214,342.606C-119.457,344.539 -82.345,339.503 -46.377,341.54C-37.5,339.41 -5.698,339.392 -1.912,330.565C-0.12,326.386 -0.786,298.43 -1.066,291.875C-5.158,236.652 -0.156,181.173 0,125.642" style="fill:white;fill-rule:nonzero;"/>
            </g>
        </g>
    </g>
</svg>
