<?xml version="1.0" encoding="UTF-8" standalone="no"?>
<!DOCTYPE svg PUBLIC "-//W3C//DTD SVG 1.1//EN" "http://www.w3.org/Graphics/SVG/1.1/DTD/svg11.dtd">
<svg width="100%" height="100%" viewBox="0 0 3199 4242" version="1.1" xmlns="http://www.w3.org/2000/svg" xmlns:xlink="http://www.w3.org/1999/xlink" xml:space="preserve" xmlns:serif="http://www.serif.com/" style="fill-rule:evenodd;clip-rule:evenodd;stroke-linejoin:round;stroke-miterlimit:2;">
    <g transform="matrix(1,0,0,1,43687.649216,1228.130298)">
        <g transform="matrix(1.322336,0,0,1.322336,-29564.239774,15388.519095)">
            <g transform="matrix(11.862995,0,0,11.862995,-9109.385667,-10054.194937)">
                <path d="M0,-38.618C-0.404,-38.489 -0.789,-38.103 -0.691,-37.641C-0.456,-36.617 3.552,-35.965 4.3,-37.218C3.46,-38.342 1.306,-39.033 0,-38.618M29.314,-40.759C27.015,-40.911 26.672,-39.413 26.818,-37.429C27.3,-36.866 30.081,-39.667 29.314,-40.759M-6.587,-37.897C-5.616,-40.285 -3.547,-41.974 -1.534,-43.47C-3.746,-44.566 -4.126,-46.442 -5.524,-48.199L-9.862,-47.426C-8.814,-44.602 -9.094,-41.403 -10.279,-38.681L-6.587,-37.897ZM-21.234,-48.595C-24.036,-47.765 -23.198,-42.055 -20.469,-41.592C-15.477,-40.746 -16.371,-50.035 -21.234,-48.595M-63.5,-50.635C-68.42,-46.268 -59.599,-43.609 -59.519,-50.464C-60.004,-52.23 -62.488,-51.533 -63.5,-50.635M30.983,-48.684L27.653,-53.265C26.894,-46.416 15.289,-42.015 10.353,-47.006L7.646,-44.279C12.309,-37.206 3.491,-27.456 -4.027,-28.678L-4.86,-25.344C4.292,-26.127 13.171,-28.888 21.396,-32.847C16.092,-39.229 23.99,-48.264 30.983,-48.684M18.331,-54.458C16.229,-53.75 18.773,-49.215 21.226,-51.144C23.015,-52.55 20.668,-55.246 18.331,-54.458M-31.846,-59.408C-32.71,-58.5 -32.697,-55.697 -30.95,-56.22C-29.127,-56.767 -29.734,-61.627 -31.846,-59.408M-48.201,-55.767C-45.339,-55.713 -48.198,-60.909 -49.038,-59.932L-48.201,-55.767ZM20.144,-59.095C12.195,-62.451 3.885,-65.45 -4.86,-65.764C-3.269,-63.891 -1.468,-62.099 -1.095,-59.527C3.697,-61.37 9.634,-60.505 10.982,-54.932L15.697,-57.507L20.144,-59.095ZM-34.453,-67.015C-38.146,-67.842 -38.199,-65.058 -40.279,-63.05C-41.186,-62.174 -42.807,-61.005 -44.038,-60.762C-38.195,-54.225 -45.924,-47.357 -52.788,-50.347C-51.341,-43.214 -61.381,-32.542 -68.102,-38.118C-74.848,-43.715 -64.978,-58.974 -56.563,-55.777C-56.272,-58.167 -54.785,-59.414 -53.239,-61.033C-55.044,-64.857 -57.263,-63.387 -60.396,-62.328C-69.647,-59.2 -84.967,-50.51 -75.725,-39.293C-72.018,-34.794 -66.038,-32.316 -60.845,-29.989L-60.299,-29.925C-57.473,-40.881 -43.288,-37.621 -46.958,-26.176C-37.463,-24.531 -27.846,-23.785 -18.198,-24.094C-19.21,-25.861 -19.585,-27.902 -19.451,-29.923C-24.312,-27.892 -30.932,-30.591 -31.853,-36.067C-33.338,-44.892 -26.646,-52.896 -17.781,-53.269C-19.172,-56.36 -19.074,-60.811 -17.129,-63.658L-14.032,-66.598L-22.785,-67.021C-21.873,-61.216 -28.845,-50.065 -35.072,-50.321C-42.324,-50.618 -37.648,-63.949 -34.453,-67.015M5.138,-74.105C6.138,-79.21 -1.121,-80.512 -1.527,-75.357L5.138,-74.105ZM8.478,-73.274C19.322,-70.75 30.204,-66.301 39.701,-60.524C51.948,-53.073 70.63,-36.612 71.405,-21.377C72.299,-3.829 48.94,19.574 36.828,30.728L18.363,57.898L16.205,58.452L-106.575,58.661C-109.177,51.818 -111.133,44.742 -113.74,37.901C-119.735,22.167 -133.459,-1.957 -132.392,-18.457C-131.386,-34.009 -111.485,-51.209 -99.023,-58.859C-86.514,-66.538 -72.485,-71.445 -58.204,-74.723C-56.442,-89.076 -38.385,-94.084 -35.701,-77.437C-28.227,-78.348 -20.522,-77.855 -13.038,-77.051L-12.438,-77.724C-12.148,-86.295 -2.613,-97.279 6.413,-93.088C12.124,-90.436 12.382,-82.555 10.467,-77.325C9.931,-75.862 8.917,-74.714 8.478,-73.274" style="fill:white;fill-rule:nonzero;"/>
            </g>
            <g transform="matrix(11.862995,0,0,11.862995,-9450.081392,-11230.907947)">
                <path d="M0,-31.924C-7.723,-30.787 -10.331,-16.414 -1.04,-17.944C6.358,-19.162 8.645,-33.196 0,-31.924M-1.25,-34.822C18.627,-37.525 19.33,-4.381 0.115,0.302C-21.63,5.601 -22.658,-31.911 -1.25,-34.822" style="fill:white;fill-rule:nonzero;"/>
            </g>
            <g transform="matrix(11.862995,0,0,11.862995,-9135.625426,-11439.55193)">
                <path d="M0,2.811C-0.682,3.499 -1.26,4.763 -0.936,5.73C4.07,8.941 4.453,-1.684 0,2.811M3.071,-11.829C9.607,-13.185 11.565,-6.573 11.053,-1.347C10.466,4.653 3.885,15.996 -3.123,11.682C-10.421,7.191 -4.687,-10.219 3.071,-11.829" style="fill:white;fill-rule:nonzero;"/>
            </g>
            <g transform="matrix(11.862995,0,0,11.862995,-8877.02044,-11261.058935)">
                <path d="M0,-2.83C0,-4.205 -1.115,-5.32 -2.49,-5.32C-3.865,-5.32 -4.979,-4.205 -4.979,-2.83C-4.979,-1.455 -3.865,-0.34 -2.49,-0.34C-1.115,-0.34 0,-1.455 0,-2.83M-2.468,-9.783C12.292,-12.297 9.238,9.467 -4.615,7.584C-14.302,6.268 -11.652,-8.218 -2.468,-9.783" style="fill:white;fill-rule:nonzero;"/>
            </g>
            <g transform="matrix(11.862995,0,0,11.862995,-8861.718362,-11724.903224)">
                <path d="M0,1.81C-0.912,0.913 -3.597,0.739 -3.688,2.753C-3.893,7.269 2.628,4.396 0,1.81M1.661,-6.944C13.562,-8.992 12.528,6.32 1.954,9.187C-4.001,10.802 -8.599,6.884 -6.862,0.784C-5.92,-2.522 -1.767,-6.354 1.661,-6.944" style="fill:white;fill-rule:nonzero;"/>
            </g>
            <g transform="matrix(11.862995,0,0,11.862995,-9415.414162,-11687.661724)">
                <path d="M0,-10.913C-1.7,-12.751 -2.588,-8.164 0.511,-8.517C0.525,-9.234 0.498,-10.374 0,-10.913M-4.172,-14.26C0.353,-14.913 6.865,-9.511 7.192,-4.965C7.836,4 -5.489,0.438 -7.842,-7.452C-8.817,-10.723 -7.845,-13.729 -4.172,-14.26" style="fill:white;fill-rule:nonzero;"/>
            </g>
            <g transform="matrix(11.862995,0,0,11.862995,-9128.59067,-12486.609522)">
                <path d="M0,1.393C-0.425,1.445 -1.591,1.818 -1.799,2.13C-3.477,6.249 3.651,5.463 2.969,2.851C2.306,1.747 1.284,1.236 0,1.393M-2.259,-4.371C5.348,-11.984 14.61,0.932 6.746,7.343C-0.657,13.377 -8.869,2.244 -2.259,-4.371" style="fill:white;fill-rule:nonzero;"/>
            </g>
            <g transform="matrix(11.862995,0,0,11.862995,-8851.896989,-12257.853018)">
                <path d="M0,-10.782C11.945,-12.85 12.953,2.067 1.984,2.068C-6.906,2.068 -8.529,-9.305 0,-10.782" style="fill:white;fill-rule:nonzero;"/>
            </g>
            <g transform="matrix(11.862995,0,0,11.862995,-9828.207239,-11551.645369)">
                <path d="M0,12.412C-3.093,9.326 1.364,3.125 4.088,1.104C10.041,-3.314 15.389,-0.573 11.777,6.709C10.166,9.958 3.322,15.726 0,12.412" style="fill:white;fill-rule:nonzero;"/>
            </g>
            <g transform="matrix(11.862995,0,0,11.862995,-9707.196386,-11674.35263)">
                <path d="M0,-14.13C8.12,-15.328 6.728,-1.92 -0.618,-0.567C-10.194,1.198 -7.661,-13 0,-14.13" style="fill:white;fill-rule:nonzero;"/>
            </g>
            <g transform="matrix(11.862995,0,0,11.862995,-9015.122309,-12002.046512)">
                <path d="M0,-1.93C-2.554,-1.369 -1.976,1.061 1.142,0.471C2.235,0.264 3.29,-1.096 2.211,-1.823C1.506,-2.165 0.737,-2.092 0,-1.93M4.974,-7.297C8.674,-3.719 6.79,6.825 0.736,6.77C-6.261,6.706 -5.585,-6.799 1.04,-8.417C2.424,-8.755 3.945,-8.293 4.974,-7.297" style="fill:white;fill-rule:nonzero;"/>
            </g>
            <g transform="matrix(11.862995,0,0,11.862995,-8560.226277,-12034.577217)">
                <path d="M0,-12.939C7.064,-13.564 9.051,-0.489 1.428,0.071C-6.121,0.625 -7.092,-12.311 0,-12.939" style="fill:white;fill-rule:nonzero;"/>
            </g>
            <g transform="matrix(11.862995,0,0,11.862995,-9262.035127,-11901.031924)">
                <path d="M0,-14.617C2.316,-14.799 4.295,-13.258 4.158,-10.852C3.792,-4.449 -8.059,0.182 -8.694,-5.729C-9.145,-9.924 -3.923,-14.308 0,-14.617" style="fill:white;fill-rule:nonzero;"/>
            </g>
            <g transform="matrix(11.862995,0,0,11.862995,-9707.146561,-11177.888663)">
                <path d="M0,-10.56C6.404,-11.454 5.437,-1.666 -1.134,-0.398C-7.833,0.894 -6.976,-9.586 0,-10.56" style="fill:white;fill-rule:nonzero;"/>
            </g>
            <g transform="matrix(11.862995,0,0,11.862995,-9247.421104,-11134.542466)">
                <path d="M0,-10.448C6.647,-11.513 8.289,-4.06 2.311,-1.88C-5.765,1.065 -7.954,-9.174 0,-10.448" style="fill:white;fill-rule:nonzero;"/>
            </g>
            <g transform="matrix(11.862995,0,0,11.862995,-9415.710737,-11004.948737)">
                <path d="M0,-9.709C6.742,-11.261 7.652,-1.587 2.73,-0.316C-4.501,1.552 -4.994,-8.559 0,-9.709" style="fill:white;fill-rule:nonzero;"/>
            </g>
            <g transform="matrix(11.862995,0,0,11.862995,-9524.766063,-10636.740354)">
                <path d="M0,17.37C-4.747,22.482 -12.365,18.446 -11.109,11.681C-13.416,11.745 -15.809,11.045 -16.623,8.648C-19.165,1.168 -1.648,-5.112 -0.035,3.322C0.088,3.967 -0.327,4.628 -0.198,5.132C-0.055,5.691 1.052,6.436 1.481,7.217C3.112,10.188 2.287,14.907 0,17.37" style="fill:white;fill-rule:nonzero;"/>
            </g>
        </g>
    </g>
</svg>
