<?xml version="1.0" encoding="UTF-8" standalone="no"?>
<!DOCTYPE svg PUBLIC "-//W3C//DTD SVG 1.1//EN" "http://www.w3.org/Graphics/SVG/1.1/DTD/svg11.dtd">
<svg width="100%" height="100%" viewBox="0 0 2845 6896" version="1.1" xmlns="http://www.w3.org/2000/svg" xmlns:xlink="http://www.w3.org/1999/xlink" xml:space="preserve" xmlns:serif="http://www.serif.com/" style="fill-rule:evenodd;clip-rule:evenodd;stroke-linejoin:round;stroke-miterlimit:2;">
    <g transform="matrix(1,0,0,1,36704.868801,9745.062177)">
        <g transform="matrix(2.69928,0,0,2.69928,-25734.592628,51107.678051)">
            <g transform="matrix(4.166667,0,0,4.166667,-3516.690417,-19982.418664)">
                <path d="M0,-614.578L6.57,-272.962L-4.355,-271.261C-4.912,-258.787 -3.657,-246.091 -4.32,-233.627C-4.964,-221.513 -7.815,-208.758 -8.714,-196.606C-10.769,-168.813 -11.154,-140.492 -14.185,-112.711C-16.044,-95.681 -21.365,-77.261 -21.791,-60.376C-22.127,-47.054 -19.669,-28.894 -21.86,-15.761C-22.071,-14.5 -28.21,-3.749 -28.872,-3.159C-33.689,1.139 -42.813,-5.246 -44.943,-9.999C-46.279,-12.98 -49.99,-28.178 -50.909,-32.37C-54.931,-50.719 -51.188,-64.358 -52.28,-82.222C-52.847,-91.51 -53.44,-96.361 -53.363,-106.115C-52.766,-181.802 -65.07,-259.526 -53.252,-334.871C-48.395,-365.842 -36.652,-400.137 -45.245,-431.467C-46.12,-434.656 -47.172,-439.625 -50.127,-441.286C-53.535,-418.674 -61.825,-398.436 -73.242,-378.838C-79.501,-368.095 -89.016,-357.142 -94.261,-346.455C-100.438,-333.87 -101.038,-317.043 -105.411,-303.113C-109.841,-289.003 -116.591,-270.641 -131.39,-289.738L-130.79,-330.671C-130.054,-337.174 -123.178,-348.789 -118.257,-353.013C-116.483,-354.536 -114.007,-355.061 -112.208,-356.772C-108.506,-360.294 -106.797,-373.137 -104.942,-378.933C-99.214,-396.831 -92.308,-413.807 -88.628,-432.368C-83.805,-456.696 -79.598,-480.684 -71.04,-504.147C-67.246,-512.195 -61.035,-514.153 -53.148,-516.771C-47.147,-518.763 -29.661,-521.551 -25.799,-524.028C-25.417,-524.272 -22.226,-529.768 -22.06,-530.38C-18.513,-543.484 -33.859,-548.418 -40.3,-556.295C-50.14,-568.329 -45.951,-587.027 -38.898,-599.549C-31.55,-612.597 -13.98,-615.717 0,-614.578" style="fill:white;fill-rule:nonzero;"/>
            </g>
            <g transform="matrix(4.166667,0,0,4.166667,-3144.39625,-22003.81033)">
                <path d="M0,166.994L-8.691,129.383L-11.966,0.259C-10.398,0 -10.494,2.146 -10.123,3.292C-0.179,33.995 -1.894,76.897 -1.034,109.738C-0.533,128.861 -1.145,147.939 0,166.994" style="fill:white;fill-rule:nonzero;"/>
            </g>
            <g transform="matrix(-2.325444,-3.457372,-3.457372,2.325444,-2874.212814,-21563.629073)">
                <path d="M-65.444,102.463L-51.71,102.463L54.567,34.852L33.893,38.232C1.178,60.343 -32.143,81.474 -65.444,102.463" style="fill:white;fill-rule:nonzero;"/>
            </g>
            <g transform="matrix(4.166667,0,0,4.166667,-3212.511667,-22129.902414)">
                <path d="M0,134.045L-7.646,116.097L-13.056,0C-5.618,4.156 -3.976,8.719 -3.275,16.909C-2.225,29.184 -2.552,42.653 -2.124,54.992C-1.209,81.342 -1.98,107.746 0,134.045" style="fill:white;fill-rule:nonzero;"/>
            </g>
            <g transform="matrix(-0.062293,-4.166201,-4.166201,0.062293,-2796.229147,-21290.58619)">
                <path d="M-50.511,60.323L59.586,60.323C55.079,58.852 49.166,54.16 44.692,53.528C30.618,51.543 7.252,52.047 -7.537,52.017C-21.534,51.989 -40.583,49.611 -50.511,60.323" style="fill:white;fill-rule:nonzero;"/>
            </g>
            <g transform="matrix(4.166667,0,0,4.166667,-3431.5275,-20468.88533)">
                <path d="M0,-410.391C1.029,-408.641 0.05,-393.157 0.217,-389.336C2.876,-328.781 2.349,-268.037 3.487,-207.332L8.97,86.336C2.356,78.954 -2.278,64.063 -3.046,54.225C-5.331,24.942 -3.425,-7.753 -4.052,-37.406C-6.593,-157.531 -9.596,-277.928 -11.771,-398.055C-12.368,-431.003 -12.218,-463.808 -12.81,-496.727L-0.977,-492.767C-0.404,-478.287 -1.203,-463.758 -0.872,-449.277C-0.779,-445.232 1.962,-439.808 -0.75,-436.163C-1.61,-435.006 -3.94,-434.576 -5.07,-432.857C-9.074,-426.766 -6.57,-418.872 -3.273,-413.069C-2.254,-411.275 -0.284,-410.875 0,-410.391" style="fill:white;fill-rule:nonzero;"/>
            </g>
            <g transform="matrix(4.166667,0,0,4.166667,-3358.274583,-20033.71158)">
                <path d="M0,-510.6C0.776,-490.867 0.522,-471.017 1.164,-451.274C5.915,-305.107 13.174,-158.385 14.238,-12.068C14.261,-8.965 16.357,-5.983 14.019,-3.114C10.244,0.575 -0.016,-3.943 -0.943,-8.869L-9.708,-511.175L0,-510.6Z" style="fill:white;fill-rule:nonzero;"/>
            </g>
            <g transform="matrix(4.166667,0,0,4.166667,-3271.544583,-21498.70158)">
                <path d="M0,255.018L-8.697,0C-6.722,1.054 -5.176,3.864 -4.161,5.806C10.291,33.459 0.29,77.235 -1.124,107.305C-2.903,145.135 -0.757,184.027 0.056,221.738C0.295,232.816 -0.204,243.95 0,255.018" style="fill:white;fill-rule:nonzero;"/>
            </g>
            <g transform="matrix(-1.892063,-3.712305,-3.712305,1.892063,-3117.1463,-22057.50554)">
                <path d="M-55.059,72.099L-36.03,72.099L44.062,33.794C42.969,31.367 40.599,28.763 37.7,29.701L-55.059,72.099Z" style="fill:white;fill-rule:nonzero;"/>
            </g>
            <g transform="matrix(4.166667,0,0,4.166667,-3403.188333,-22502.26908)">
                <path d="M0,44.684L0,0C9.377,9.106 10.011,22.018 8.785,34.397C8.317,39.132 4.514,43.224 0,44.684" style="fill:white;fill-rule:nonzero;"/>
            </g>
            <g transform="matrix(2.927283,-2.965152,-2.965152,-2.927283,-3302.844025,-20192.694458)">
                <path d="M10.008,-2.222L11.108,-2.222C5.586,-9.216 2.793,-15.937 -5.528,-20.157C-6.612,-20.707 -8.056,-22.284 -8.993,-20.981L10.008,-2.222Z" style="fill:white;fill-rule:nonzero;"/>
            </g>
        </g>
    </g>
</svg>
