<?xml version="1.0" encoding="UTF-8" standalone="no"?>
<!DOCTYPE svg PUBLIC "-//W3C//DTD SVG 1.1//EN" "http://www.w3.org/Graphics/SVG/1.1/DTD/svg11.dtd">
<svg width="100%" height="100%" viewBox="0 0 3584 2069" version="1.1" xmlns="http://www.w3.org/2000/svg" xmlns:xlink="http://www.w3.org/1999/xlink" xml:space="preserve" xmlns:serif="http://www.serif.com/" style="fill-rule:evenodd;clip-rule:evenodd;stroke-linejoin:round;stroke-miterlimit:2;">
    <g transform="matrix(1,0,0,1,30783.548779,-7043.370551)">
        <g transform="matrix(11.862995,0,0,11.862995,-27757.340643,7812.804831)">
            <path d="M0,46.872C-22.119,53.922 -45.08,58.055 -68.203,60.265L-72.655,69.411L-81.594,82.528C-74.926,80.512 -68.36,78.091 -61.652,76.183C-53.48,73.86 -44.843,72.436 -36.866,70.142C-29.386,67.991 -21.777,62.279 -15.275,57.884C-10.094,54.381 -4.918,50.732 0,46.872M-138.418,86.753C-145.682,78.734 -150.114,69.482 -153.543,59.272C-171.545,56.017 -189.684,52.818 -206.711,45.951C-211.447,44.042 -215.845,41.399 -220.622,39.619C-218.989,41.486 -217.776,43.849 -216.095,45.663C-200.036,63.002 -186.69,72.063 -164.27,80.275C-156.31,83.19 -146.753,85.492 -138.418,86.753M-102.241,-64.794C-69.756,-65.667 -44.585,-57.862 -16.518,-42.696C1.403,-33.013 12.202,-25.029 26.604,-10.867C31.138,-6.409 43.908,5.327 45.63,10.605C52.001,30.13 34.117,43.603 20.837,54.103C-4.231,73.923 -35.008,95.141 -66.234,103.032C-90.284,109.11 -121.732,112.539 -145.677,105.806C-173.818,97.893 -206.406,88.845 -224.514,64.358C-227.193,60.736 -229.136,55.19 -231.601,51.499C-235.94,45.002 -240.122,39.548 -244.097,32.563C-252.212,18.304 -260.928,6.47 -249.884,-9.293C-242.125,-20.367 -213.808,-36.211 -201.084,-42.094C-169.478,-56.707 -137.155,-63.856 -102.241,-64.794" style="fill:white;fill-rule:nonzero;"/>
        </g>
    </g>
</svg>
