<?xml version="1.0" encoding="UTF-8" standalone="no"?>
<!DOCTYPE svg PUBLIC "-//W3C//DTD SVG 1.1//EN" "http://www.w3.org/Graphics/SVG/1.1/DTD/svg11.dtd">
<svg width="100%" height="100%" viewBox="0 0 5603 1785" version="1.1" xmlns="http://www.w3.org/2000/svg" xmlns:xlink="http://www.w3.org/1999/xlink" xml:space="preserve" xmlns:serif="http://www.serif.com/" style="fill-rule:evenodd;clip-rule:evenodd;stroke-linejoin:round;stroke-miterlimit:2;">
    <g transform="matrix(1,0,0,1,18237.134114,-6963.542439)">
        <g transform="matrix(47.616538,0,0,51.911976,-380563.447127,90428.837238)">
            <path d="M7621.272,-1602.633L7614.304,-1602.633L7614.304,-1593.607L7618.98,-1593.607L7618.98,-1588.417L7614.304,-1588.417L7614.304,-1573.453L7609.254,-1573.453L7609.254,-1607.824L7621.272,-1607.824L7621.272,-1602.633ZM7632.355,-1573.453L7629.736,-1587.949L7628.38,-1587.949L7628.38,-1573.453L7623.329,-1573.453L7623.329,-1607.824L7628.38,-1607.824C7634.412,-1607.824 7636.984,-1604.41 7636.984,-1597.91C7636.984,-1594.496 7636.096,-1591.41 7634.178,-1590.1L7637.405,-1573.453L7632.355,-1573.453ZM7628.38,-1592.625C7629.081,-1592.625 7630.016,-1592.719 7630.765,-1593.374C7631.513,-1594.028 7632.121,-1595.291 7632.121,-1597.723C7632.121,-1600.154 7631.513,-1601.464 7630.765,-1602.118C7630.016,-1602.773 7629.081,-1602.82 7628.38,-1602.82L7628.38,-1592.625ZM7640.211,-1607.824L7651.761,-1607.824L7651.761,-1602.633L7645.261,-1602.633L7645.261,-1593.607L7649.938,-1593.607L7649.938,-1588.089L7645.261,-1588.089L7645.261,-1578.643L7651.761,-1578.643L7651.761,-1573.453L7640.211,-1573.453L7640.211,-1607.824ZM7654.567,-1607.824L7666.118,-1607.824L7666.118,-1602.633L7659.618,-1602.633L7659.618,-1593.607L7664.294,-1593.607L7664.294,-1588.089L7659.618,-1588.089L7659.618,-1578.643L7666.118,-1578.643L7666.118,-1573.453L7654.567,-1573.453L7654.567,-1607.824ZM7676.172,-1573.453L7672.244,-1573.453L7667.614,-1607.824L7672.29,-1607.824L7674.301,-1589.96L7674.395,-1588.838L7674.769,-1588.838L7674.909,-1589.96L7677.06,-1607.824L7680.708,-1607.824L7682.859,-1589.96L7682.999,-1588.838L7683.373,-1588.838L7683.467,-1589.96L7685.478,-1607.824L7690.154,-1607.824L7685.524,-1573.453L7681.596,-1573.453L7679.258,-1589.726L7678.977,-1591.737L7678.79,-1591.737L7678.51,-1589.726L7676.172,-1573.453ZM7692.586,-1607.824L7697.636,-1607.824L7697.636,-1573.453L7692.586,-1573.453L7692.586,-1607.824ZM7701.377,-1607.824L7706.427,-1607.824L7706.427,-1578.129L7713.115,-1578.129L7713.115,-1573.453L7701.377,-1573.453L7701.377,-1607.824ZM7715.172,-1607.824L7720.223,-1607.824L7720.223,-1578.129L7726.91,-1578.129L7726.91,-1573.453L7715.172,-1573.453L7715.172,-1607.824Z" style="fill:white;"/>
        </g>
    </g>
</svg>
