<?xml version="1.0" encoding="UTF-8" standalone="no"?>
<!DOCTYPE svg PUBLIC "-//W3C//DTD SVG 1.1//EN" "http://www.w3.org/Graphics/SVG/1.1/DTD/svg11.dtd">
<svg width="100%" height="100%" viewBox="0 0 2249 3684" version="1.1" xmlns="http://www.w3.org/2000/svg" xmlns:xlink="http://www.w3.org/1999/xlink" xml:space="preserve" xmlns:serif="http://www.serif.com/" style="fill-rule:evenodd;clip-rule:evenodd;stroke-linejoin:round;stroke-miterlimit:2;">
    <g transform="matrix(1,0,0,1,37099.134919,-32.938421)">
        <g transform="matrix(11.862995,0,0,11.862995,-34850.507669,1459.29554)">
            <path d="M0,69.682C0.067,45.995 -2.188,22.369 -2.413,-1.324C-2.488,-9.139 -3.096,-15.429 -3.567,-23.183C-4.628,-40.653 -4.047,-57.604 -6.7,-75.041C-7.74,-81.874 -12.782,-102.339 -17.472,-106.844C-20.479,-109.732 -32.192,-113.43 -36.531,-114.394C-52.753,-117.997 -73.716,-121.404 -90.192,-119.85C-111.128,-117.875 -145.389,-112.016 -156.831,-92.471C-160.648,-85.949 -165.974,-78.066 -168.654,-71.18C-179.322,-43.773 -191.581,3.344 -189.265,32.427C-189.07,34.881 -189.14,37.927 -186.32,38.353C-182.635,38.91 -176.439,38.294 -172.397,38.62C-171.81,38.668 -169.243,39.04 -169.098,39.565C-170.698,47.873 -170.194,55.968 -170.297,64.36C-170.399,72.696 -170.924,81.352 -170.315,89.756C-169.734,97.79 -169.215,97.5 -161.585,98.765C-155.2,99.823 -149.115,99.633 -142.831,100.116C-135.293,100.695 -127.692,101.257 -120.173,101.995C-118.834,103.162 -119.607,131.54 -119.493,135.909C-119.164,148.542 -119.246,163.785 -118.279,176.086C-118.119,178.126 -116.779,185.567 -115.302,186.705C-113.278,188.263 -110.841,186.835 -108.551,187.019C-101.092,187.621 -93.588,189.608 -86.084,190.014C-66.252,191.086 -45.67,188.293 -25.722,189.422C-20.798,188.241 -3.16,188.231 -1.06,183.335C-0.067,181.018 -0.436,165.513 -0.591,161.877C-2.861,131.25 -0.086,100.48 0,69.682" style="fill:white;fill-rule:nonzero;"/>
        </g>
    </g>
</svg>
