<?xml version="1.0" encoding="UTF-8" standalone="no"?>
<!DOCTYPE svg PUBLIC "-//W3C//DTD SVG 1.1//EN" "http://www.w3.org/Graphics/SVG/1.1/DTD/svg11.dtd">
<svg width="100%" height="100%" viewBox="0 0 2132 4291" version="1.1" xmlns="http://www.w3.org/2000/svg" xmlns:xlink="http://www.w3.org/1999/xlink" xml:space="preserve" xmlns:serif="http://www.serif.com/" style="fill-rule:evenodd;clip-rule:evenodd;stroke-linejoin:round;stroke-miterlimit:2;">
    <g transform="matrix(1,0,0,1,47214.471666,1228.130298)">
        <g transform="matrix(16.801841,0,0,16.801841,-45723.329697,1628.791912)">
            <path d="M0,-94.178C-0.694,-93.986 -4.471,-91.041 -5.867,-90.326C-18.593,-83.801 -31.911,-82.553 -45.768,-86.111C-48.559,-86.828 -52.851,-89.437 -55.283,-88.374C-61.439,-85.684 -69.366,-74.199 -69.39,-67.369C-69.467,-45.499 -35.081,-40.78 -18.948,-42.962C-1.639,-45.303 32.515,-60.739 18.815,-82.997C16.542,-86.69 6.102,-92.869 1.988,-94.002C1.256,-94.203 0.813,-94.403 0,-94.178M-67.533,-97.905C-91.398,-121.81 -81.11,-157.199 -49.722,-167.425C-10.496,-180.205 33.853,-143.986 9.85,-104.236C14.063,-101.765 18.485,-99.271 22.209,-96.062C50.085,-72.043 33.137,-44.855 31.571,-15.412C30.467,5.346 32.088,26.839 32.796,47.479C33.663,72.755 -3.535,84.427 -23.717,85.247C-42.893,86.027 -75.653,78.339 -82.757,57.864C-85.212,50.788 -83.302,48.79 -83.227,42.61C-83.127,34.343 -83.867,25.632 -83.881,17.224C-83.917,-3.215 -84.609,-27.472 -86.923,-47.979C-87.188,-50.318 -88.472,-53.184 -88.679,-55.894C-89.251,-63.339 -86.224,-76.433 -82.525,-82.966C-79.121,-88.977 -73.618,-94.616 -67.533,-97.905" style="fill:white;fill-rule:nonzero;"/>
        </g>
    </g>
</svg>
