<?xml version="1.0" encoding="UTF-8" standalone="no"?>
<!DOCTYPE svg PUBLIC "-//W3C//DTD SVG 1.1//EN" "http://www.w3.org/Graphics/SVG/1.1/DTD/svg11.dtd">
<svg width="100%" height="100%" viewBox="0 0 4194 4197" version="1.1" xmlns="http://www.w3.org/2000/svg" xmlns:xlink="http://www.w3.org/1999/xlink" xml:space="preserve" xmlns:serif="http://www.serif.com/" style="fill-rule:evenodd;clip-rule:evenodd;stroke-linejoin:round;stroke-miterlimit:2;">
    <g transform="matrix(1,0,0,1,25150.271442,194.130298)">
        <g transform="matrix(2.543885,0,0,2.543885,-19105.666684,-874.107663)">
            <g transform="matrix(1.807618,0,0,1.807618,-1807.526582,481.640731)">
                <path d="M0,-5.961L5.555,-6.613L49.229,-26.419C57.75,-27.241 52.471,-0.866 52.361,4.328C51.767,32.409 51.898,60.514 51.102,88.593L49.06,93.448C36.503,96.967 19.885,110.429 8.305,113.444C6.382,113.945 4.888,114.789 3.396,112.725L8.263,32.663L-37.13,55.453L-42.084,53.373C-43.577,50.882 -42.738,47.44 -42.402,44.744C-40.111,26.38 -29.805,-1.324 -25.451,-21.066C-19.343,-48.756 -15.803,-77.349 -8.457,-104.771C-7.68,-107.672 -5.92,-115.922 -4.849,-117.716C-3.039,-120.75 0,-114.837 0,-114.246L0,-5.961Z" style="fill:white;fill-rule:nonzero;"/>
            </g>
            <g transform="matrix(1.807618,0,0,1.807618,-1311.298632,1771.011693)">
                <path d="M0,-70.928L42.688,-92.387C46.371,-93.821 50.462,-93.314 52.079,-89.393L11.711,80.781C6.205,75.814 9.694,70.359 9.707,65C9.789,32.509 7.26,0.256 8.255,-32.298L-39.643,-11.828L-42.852,-12.204L-44.149,-15.069L-42.104,-130.26L-0.043,-151.709L4.87,-150.988L0,-70.928Z" style="fill:white;fill-rule:nonzero;"/>
            </g>
            <g transform="matrix(1.807618,0,0,1.807618,-2009.798902,688.77934)">
                <path d="M0,160.666C-1.798,161.779 -5.452,160.521 -6.825,158.869L-55.72,102.926L-72.842,150.251L-79.201,151.336L-172.256,2.223C-168.711,-1.113 -155.112,16.169 -152.297,18.806C-150.122,20.844 -147.481,22.194 -145.327,24.251C-137.925,31.319 -93.903,78.553 -90.094,79.404C-87.993,79.873 -87.214,77.676 -86.447,76.306L-69.482,31.192L-65.655,29.991L-60.504,33.231C-40.609,54.235 -21.236,75.837 -1.25,96.743C1.405,99.52 14.149,110.125 14.654,111.215C15.953,114.025 15.216,115.484 14.734,118.146C13.983,122.3 1.913,159.481 0,160.666" style="fill:white;fill-rule:nonzero;"/>
            </g>
            <g transform="matrix(1.807618,0,0,1.807618,-727.858878,863.354065)">
                <path d="M0,-19.857C0.474,-16.306 -2.161,-15.971 -4.754,-15.664C-28.017,-12.908 -59.02,-16.582 -83.507,-15.791C-92.913,-15.486 -103.226,-13.103 -113.107,-14.341L-92.998,31.099L-92.997,36.773L-97.178,38.13C-127.075,38.631 -157.147,35.986 -186.848,35.251C-192.135,35.12 -205.806,37.324 -208.695,36.448C-210.93,35.77 -211.551,33.811 -212.692,32.123C-215.77,27.568 -231.856,-5.74 -231.836,-9.537C-231.821,-12.347 -229.507,-12.513 -227.193,-12.487C-202.505,-12.209 -176.673,-6.843 -151.739,-7.465L-173.605,-52.623L-172.56,-56.526L-168.952,-58.488L0,-19.857Z" style="fill:white;fill-rule:nonzero;"/>
            </g>
            <g transform="matrix(1.807618,0,0,1.807618,-1957.449369,1330.518584)">
                <path d="M0,5.668L-79.833,1.724L-57.963,45.487C-56.981,48.806 -59.03,52.408 -62.613,52.74L-231.565,14.11C-232.039,10.559 -229.404,10.224 -226.812,9.917C-202.166,6.998 -169.81,11.041 -143.92,10.043C-135.834,9.732 -127.03,7.388 -118.464,8.6L-138.907,-37.927L-138.565,-42.524C-137.581,-43.886 -135.851,-43.698 -134.387,-43.877C-108.246,-47.072 -72.999,-40.302 -46.093,-40.995C-37.44,-38.817 -24.68,-46.052 -19.355,-38.765C-15.938,-34.089 -2.765,-7.708 -0.905,-2.051C-0.066,0.501 0.859,2.939 0,5.668" style="fill:white;fill-rule:nonzero;"/>
            </g>
            <g transform="matrix(1.807618,0,0,1.807618,-1151.753531,659.228394)">
                <path d="M0,-185.584C-0.551,-179.239 -6.962,-176.84 -10.377,-173.214C-32.666,-149.544 -55.347,-126.294 -78.594,-103.515C-78.631,-100.588 -35.245,-87.285 -29.819,-83.341C-28.702,-82.53 -27.36,-82.084 -27.728,-80.301C-28.332,-78.27 -29.764,-76.825 -31.007,-75.209C-45.058,-56.952 -80.314,-29.13 -98.658,-11.819C-103.073,-7.653 -106.147,-2.752 -110.738,1.013C-111.929,1.814 -112.958,1.268 -114.154,1.079C-120.562,0.069 -147.207,-9.104 -153.494,-12.089C-155.615,-13.097 -160.413,-14.953 -159.902,-17.8L-100.702,-68.366L-101.503,-71.185L-148.618,-86.605L-150.273,-91.141L-149.092,-93.926C-129.843,-106.742 -109.279,-117.438 -89.772,-129.841C-66.044,-144.927 -43.435,-162.19 -19.189,-176.508C-16.393,-178.159 -1.983,-187.398 0,-185.584" style="fill:white;fill-rule:nonzero;"/>
            </g>
            <g transform="matrix(1.807618,0,0,1.807618,-989.682825,1386.540656)">
                <path d="M0,-43.079L15.028,-90.534L23.187,-91.064L114.496,57.614C111.321,57.982 108.605,55.976 106.371,54.028C93.574,42.867 78.394,25.964 65.496,13.517C60.521,8.715 35.291,-18.465 32.404,-19.612C29.944,-20.59 28.974,-15.303 28.365,-14.045C25.375,-7.863 13.493,28.99 10.183,29.955C8.629,30.408 7.253,29.817 6.15,28.725L-72.956,-54.777C-72.968,-57.012 -60.606,-94.372 -58.989,-97.244C-57.915,-99.153 -57.006,-100.908 -54.477,-101.061L0,-43.079Z" style="fill:white;fill-rule:nonzero;"/>
            </g>
            <g transform="matrix(1.807618,0,0,1.807618,-1770.118642,1728.583635)">
                <path d="M0,-41.955L48.29,-26.096L48.989,-18.46L-99.315,72.547C-99.649,69.587 -97.909,66.878 -96.076,64.765C-82.78,49.446 -62.89,33.417 -48.247,18.103C-39.508,8.964 -31.655,-1.15 -22.086,-9.541L-70.76,-29.433L-72.45,-33.69L11.705,-114.502L56.977,-99.612C58.571,-99.048 59.397,-98.231 59.389,-96.438C59.362,-90.552 5.738,-51.007 0,-41.955" style="fill:white;fill-rule:nonzero;"/>
            </g>
        </g>
    </g>
</svg>
