<?xml version="1.0" encoding="UTF-8" standalone="no"?>
<!DOCTYPE svg PUBLIC "-//W3C//DTD SVG 1.1//EN" "http://www.w3.org/Graphics/SVG/1.1/DTD/svg11.dtd">
<svg width="100%" height="100%" viewBox="0 0 4160 4181" version="1.1" xmlns="http://www.w3.org/2000/svg" xmlns:xlink="http://www.w3.org/1999/xlink" xml:space="preserve" xmlns:serif="http://www.serif.com/" style="fill-rule:evenodd;clip-rule:evenodd;stroke-linejoin:round;stroke-miterlimit:2;">
    <g transform="matrix(1,0,0,1,41589.028729,13925.504661)">
        <g transform="matrix(8.48259,0,0,8.48259,-39393.779684,-10018.130614)">
            <path d="M0,-432.077C-19.785,-430.743 -53.309,-424.687 -72.213,-419.436C-96.905,-412.577 -119.808,-399.667 -140.701,-385.205C-172.121,-363.458 -203.265,-311.4 -212.334,-274.625C-227.903,-211.497 -203.637,-96.578 -153.919,-51.813C-136.934,-36.521 -79.284,-10.841 -56.583,-4.451C-34.154,1.863 -9.405,-1.314 13.019,-5.504C36.513,-9.895 63.707,-16.491 84.068,-29.135C131.895,-58.835 156.331,-88.708 178.085,-140.556C193.153,-176.47 194.731,-197.361 190.308,-236.156C183.871,-292.612 165.772,-365.347 118.366,-400.914C89.181,-422.811 36.133,-434.513 0,-432.077M-187.97,-42.326C-194.489,-49.499 -199.049,-60.769 -204.519,-69.097C-217.706,-89.176 -229.56,-103.364 -237.82,-126.903C-241.254,-136.687 -242.302,-145.844 -244.811,-155.64C-253.786,-190.69 -264.333,-217.722 -255.412,-255.179C-253.601,-262.784 -252.845,-265.626 -251.593,-273.689C-249.302,-288.439 -239.277,-307.97 -232.817,-321.904C-223.782,-341.392 -209.371,-354.138 -196.342,-370.283C-184.426,-385.05 -175.735,-396.248 -161.017,-409.094C-135.834,-431.076 -106.202,-440.134 -75.725,-451.53C-66.734,-454.892 -64.191,-453.64 -55.655,-454.683C-16.754,-459.439 20.245,-464.532 59.302,-456.18C79.948,-451.765 124.692,-437.8 140.426,-424.76C162.977,-406.071 170.611,-392.373 187.027,-369.536C197.061,-355.577 220.336,-330.596 223.086,-314.488C224.149,-308.256 223.157,-302.091 224.624,-295.483C226.294,-287.958 229.206,-283.505 229.773,-274.728C231.444,-248.846 233.916,-218.723 226.605,-193.86C225.081,-188.677 220.835,-181.341 220.123,-177.119C219.275,-172.09 220.379,-166.361 219.896,-161.268C218.52,-146.757 208.925,-119.392 200.631,-107.29C198.929,-104.806 195.651,-102.273 194.148,-99.483C192.414,-96.264 192.005,-92.358 190.276,-89.063C185.526,-80.014 174.559,-76.264 168.998,-69.253C162.312,-60.824 161.103,-51.286 151.935,-42.55C135.811,-27.185 121.713,-21.858 102.58,-12.409C90.372,-6.38 78.857,0.978 66.598,6.987C61.343,9.562 55.286,10.896 50.171,13.784C44.932,16.742 41.249,21.826 35.635,24.258C32.473,25.628 4.655,32.079 1.494,32.172C-8.058,32.455 -25.599,29.604 -35.885,28.444C-65.557,25.097 -107.147,19.375 -132.293,2.484C-141.273,-3.548 -149.455,-11.546 -157.995,-18.262C-168.11,-26.216 -178.884,-32.326 -187.97,-42.326" style="fill:white;fill-rule:nonzero;"/>
        </g>
        <g transform="matrix(8.48259,0,0,8.48259,-39393.794104,-10254.724465)">
            <path d="M0,-373.818C59.16,-375.116 121.214,-337.499 143.736,-282.274C146.993,-252.037 160.443,-216.969 159.165,-186.964C157.562,-149.336 147.845,-114.912 125.586,-84.775C103.911,-55.428 82.626,-20.539 45.744,-10.987C16.535,-3.422 -20.127,1.298 -49.319,-6.151C-89.533,-16.412 -144.736,-47.579 -163.43,-85.865C-178.544,-116.819 -186.877,-144.08 -185.64,-178.953C-183.064,-251.554 -165.331,-304.145 -104.244,-346.761C-76.363,-366.212 -33.687,-373.079 0,-373.818" style="fill:white;fill-rule:nonzero;"/>
        </g>
    </g>
</svg>
