<?xml version="1.0" encoding="UTF-8" standalone="no"?>
<!DOCTYPE svg PUBLIC "-//W3C//DTD SVG 1.1//EN" "http://www.w3.org/Graphics/SVG/1.1/DTD/svg11.dtd">
<svg width="100%" height="100%" viewBox="0 0 3775 3777" version="1.1" xmlns="http://www.w3.org/2000/svg" xmlns:xlink="http://www.w3.org/1999/xlink" xml:space="preserve" xmlns:serif="http://www.serif.com/" style="fill-rule:evenodd;clip-rule:evenodd;stroke-linejoin:round;stroke-miterlimit:2;">
    <g transform="matrix(1,0,0,1,24528.527345,-5967.370551)">
        <g transform="matrix(0.880131,0,0,0.880131,-34727.8642,10188.348536)">
            <g transform="matrix(4.166667,0,0,4.166667,12380.0325,-1881.04375)">
                <path d="M0,11.524C-18.22,30.189 -24.104,56.235 -24.306,81.611L-19.831,85.215L-14.437,47.999C-13.794,43.563 -0.621,26.188 3.46,22.358C18.74,8.019 38.889,8.541 49.963,-12.518C72.699,-55.759 25.21,-73.691 -10.567,-60.498C-21.522,-56.458 -53.513,-35.698 -63.527,-28.068C-68.017,-24.647 -69.632,-19.743 -63.271,-21.485C-53.865,-24.059 -39.53,-36.408 -28.301,-40.84C-24.923,-42.173 -8.243,-48.677 -8.386,-43.055C-11.558,-37.588 -16.807,-28.997 -12.06,-23.268C-4.83,-31.963 9.744,-48.09 20.862,-36.977C2.92,-9.671 -33.877,-18.726 -57.665,-1.616C-89.488,21.275 -86.03,61.076 -136.521,64.343C-142.4,64.723 -151.754,59.362 -151.518,67.003C-151.463,68.775 -135.093,70.321 -132.084,70.288C-89.624,69.82 -76.479,19.418 -34.673,4.368C-27.203,1.678 15.158,-12.014 19.798,-11.605C22.2,-11.393 23.181,-11.283 21.998,-8.641C18.335,-0.457 6.311,5.059 0,11.524" style="fill:white;fill-rule:nonzero;"/>
            </g>
            <g transform="matrix(4.166667,0,0,4.166667,12258.73,-2283.667917)">
                <path d="M0,2.019C2.579,0.072 42.305,3.133 49.973,1.748C52.048,1.373 53.772,0.236 54.942,-1.502L41.199,-28.743L-43.232,-28.997C-48.899,-24.504 -25.317,0.537 -28.451,3.167C-59.058,7.021 -91.507,8.537 -121.833,13.516C-130.055,14.866 -143.848,17.196 -127.581,22.542L7.005,31.016C16.112,29.618 0.43,8.144 0,2.019" style="fill:white;fill-rule:nonzero;"/>
            </g>
            <g transform="matrix(4.166667,0,0,4.166667,15846.729583,-2370.972917)">
                <path d="M0,79.868C-35.428,42.079 -74.03,73.154 -115.6,55.062C-122.048,52.256 -168.042,28.588 -169.707,26.008L-169.09,22.505C-160.968,20.287 -152.917,23.978 -144.82,24.077C-126.178,24.304 -105.1,17.531 -89.921,6.644C-87.168,4.67 -69.354,-10.233 -71.259,-12.784C-74.899,-17.658 -94.943,2.823 -98.733,5.18C-136.872,28.9 -164.839,-7.763 -198.553,7.934C-235.711,25.235 -213.53,67.529 -185.198,80.799C-174.026,86.032 -136.389,94.642 -123.312,96.449C-120.118,96.89 -117.642,97.526 -115.16,94.836C-120.975,87.082 -132.756,88.372 -141.641,85.438C-145.61,84.128 -171.238,74.703 -172.095,73.305C-175.968,66.992 -153.505,65.361 -155.5,56.303C-166.707,56.099 -183.217,58.265 -189.347,46.763C-189.664,36.456 -162.981,45.873 -157.808,47.994C-139.564,55.475 -129.032,70.404 -107.695,73.948C-70.953,80.049 -46.691,50.991 -9.712,79.403C-2.987,84.57 -0.758,92.272 6.937,93.966C8.506,88.56 3.397,83.491 0,79.868" style="fill:white;fill-rule:nonzero;"/>
            </g>
            <g transform="matrix(4.166667,0,0,4.166667,15042.6175,-1680.7525)">
                <path d="M0,-45.868L-39.562,-83.423C-43.702,-83.129 -50.58,-57.334 -49.888,-52.575C-48.722,-44.556 -1.065,-5.278 6.836,3.873C8.925,5.7 11.165,4.716 12.186,2.465C15.606,-5.078 15.984,-19.119 19.384,-27.139L102.294,37.555L108.281,36.102L16.024,-70.955C6.771,-76.981 3.421,-51.59 0,-45.868" style="fill:white;fill-rule:nonzero;"/>
            </g>
            <g transform="matrix(4.166667,0,0,4.166667,12669.906667,-4305.306667)">
                <path d="M0,56.258C19.769,58.692 24.032,56.676 41.335,70.045C62.653,86.515 59.754,112.167 86.461,124.319C111.69,135.799 131.771,120.305 135.127,94.248C139.068,63.65 120.832,46.726 106.258,24.22C103.491,19.947 100.939,11.226 97.619,7.214C95.593,4.765 93.532,3.762 91.135,6.641C99.497,25.585 112.523,40.626 116.719,61.571C115.514,68.001 98.674,53.012 94.022,60.064C92.443,62.458 99.57,65.706 101.712,68.181C107.089,74.395 116.885,86.202 107.7,92.928C81.229,77.823 88.401,42.133 74.329,19.164C61.383,-1.967 44.749,-5.951 27.274,-19.788C9.532,-33.837 3.61,-57.237 8.082,-78.79L2.904,-79.541C-2.73,-56.375 2.032,-34.869 18.905,-18.168C37.747,0.482 53.059,6.187 64.089,32.985C71.836,51.808 75.155,72.805 82.398,91.884C82.188,94.613 82.114,94.955 79.342,94.165C72.139,92.113 67.62,81.05 62.562,75.803C43.409,55.933 17.513,48.795 -9.35,47.718C-22.433,51.949 -5.325,55.602 0,56.258" style="fill:white;fill-rule:nonzero;"/>
            </g>
            <g transform="matrix(4.166667,0,0,4.166667,13359.02,-4460.691667)">
                <path d="M0,80.28C1.287,82.439 -0.753,123.143 -0.105,130.54C0.072,132.563 0.021,133.896 1.797,135.332L30.794,121.501L29.914,38.662C28.555,35.742 26.523,36.133 23.977,36.915C21.621,37.639 -0.5,54.793 -1.393,53.566L-13.13,-51.138L-19.24,-55.052L-29.679,90.123C-26.705,94.155 -4.841,81.171 0,80.28" style="fill:white;fill-rule:nonzero;"/>
            </g>
            <g transform="matrix(4.166667,0,0,4.166667,14791.57875,-1012.615)">
                <path d="M0,-52.515C-12.703,-54.115 -15.709,-51.391 -29.28,-58.301C-60.683,-74.291 -56.928,-108.105 -86.374,-120.612C-127.577,-138.115 -140.831,-92.523 -130.331,-60.013C-125.672,-45.586 -106.469,-18.072 -97.113,-4.554C-93.754,0.3 -90.247,-0.262 -90.977,-6.023C-91.475,-9.957 -106.785,-31.946 -109.889,-39.776C-111.382,-43.541 -114.99,-54.043 -115.064,-57.539C-115.123,-60.347 -114.976,-60.344 -112.449,-59.504C-106.473,-57.519 -100.944,-53.941 -94.398,-53.677C-92.022,-60.432 -98.674,-60.872 -102.504,-65.359C-106.723,-70.301 -111.885,-79.34 -110.106,-85.942C-103.767,-95.247 -91.65,-73.337 -89.148,-67.615C-80.623,-48.12 -84.406,-29.035 -70.701,-10.387C-48.822,19.384 -11.106,17.421 -5.78,63.071L-5.47,82.924C2.431,85.6 0.541,61.168 -0.015,57.224C-5.659,17.192 -46.726,9.283 -61.811,-24.744C-70.357,-44.022 -73.374,-68.463 -82.335,-88.112C-78.833,-92 -76.784,-89.224 -73.593,-86.948C-66.798,-82.099 -63.436,-73.846 -57.525,-68.078C-38.381,-49.393 -10.353,-43.106 15.658,-44.805C20.115,-49.437 2.448,-52.207 0,-52.515" style="fill:white;fill-rule:nonzero;"/>
            </g>
            <g transform="matrix(4.166667,0,0,4.166667,14121.556667,-839.127083)">
                <path d="M0,-81.887C-1.816,-81.265 -1.712,-79.264 -3.524,-82.433C-4.993,-97.24 -2.089,-113.992 -3.797,-128.538C-4.073,-130.887 -4.511,-136.382 -8.013,-136.092C-9.578,-135.962 -32.828,-123.019 -34.302,-119.592L-33.864,-37.376C-27.376,-33.821 -4.908,-56.474 -1.705,-52.156L9.498,53.739L14.652,54.495L26.142,-87.606C24.643,-96.306 5.281,-83.697 0,-81.887" style="fill:white;fill-rule:nonzero;"/>
            </g>
            <g transform="matrix(4.166667,0,0,4.166667,12430.282083,-1383.044167)">
                <path d="M0,15.918L-0.782,8.046L-11.433,7.535L-10.695,2.355C-4.844,2.551 -1.128,4.193 2.622,8.609C6.86,13.599 8.508,21.673 0,15.918M-16.281,-2.02C-25.987,9.857 1.024,29.07 12.714,23.309C17.876,10.473 -7.184,-13.152 -16.281,-2.02" style="fill:white;fill-rule:nonzero;"/>
            </g>
            <g transform="matrix(4.166667,0,0,4.166667,12314.20125,-1224.165833)">
                <path d="M0,-18.48C-11.568,-16.714 -3.635,1.662 7.226,-4.614C15.392,-9.333 10.886,-20.142 0,-18.48" style="fill:white;fill-rule:nonzero;"/>
            </g>
            <g transform="matrix(4.166667,0,0,4.166667,12537.363333,-1508.2125)">
                <path d="M0,26.814L-0.175,15.366L-15.541,9.87L-17.849,2.356C-16.208,-4.074 -1.241,9.559 0.783,11.569C5.925,16.674 11.248,23.799 13.332,30.738L0,26.814ZM5.907,7.742C2.067,3.84 -16.748,-11.744 -21.754,-5.872C-30.198,15.694 -4.807,37.675 14.978,38.162C31.038,38.558 11.19,13.11 5.907,7.742" style="fill:white;fill-rule:nonzero;"/>
            </g>
            <g transform="matrix(4.166667,0,0,4.166667,12793.245833,-1733.222917)">
                <path d="M0,33.386C3.475,26.854 3.795,21.546 2.784,14.37C10.083,20.79 13.212,30.648 16.818,39.36L0,33.386ZM-22.322,10.723C-26.099,5.692 -31.237,0.716 -29.586,-6.22L-13.048,1.498C-13.094,6.702 -20.262,4.897 -22.322,10.723M19.859,48.602C38.448,47.759 22.347,20.386 16.196,12.828C6.697,1.155 -16.869,-16.238 -32.338,-15.067C-41.321,-14.387 -39.509,-9.987 -38.401,-3.501C-34.742,17.908 -2.674,49.624 19.859,48.602" style="fill:white;fill-rule:nonzero;"/>
            </g>
            <g transform="matrix(4.166667,0,0,4.166667,12730.115,-1606.025)">
                <path d="M0,34.252L-13.598,30.511C-10.131,24.392 -10.437,19.449 -12.814,12.981C-9.738,10.662 3.043,32.056 0,34.252M-32.96,11.805C-35.828,7.329 -38.732,2.608 -37.012,-2.906C-36.141,-3.595 -20.789,2.683 -20.713,6.498C-26.394,5.671 -29.932,7.037 -32.96,11.805M-47.764,-13.17C-51.055,16.391 -19.349,48.864 10.795,44.585C15.172,28.573 5.88,19.296 -4.636,9.173C-15.883,-1.654 -31.461,-14.612 -47.764,-13.17" style="fill:white;fill-rule:nonzero;"/>
            </g>
            <g transform="matrix(4.166667,0,0,4.166667,15136.83625,-2585.8625)">
                <path d="M0,-34.03C-2.826,-33.69 -5.893,-33.527 -8.181,-31.525C-11.177,-28.904 -10.461,-23.75 -13.769,-23.539L-6.292,-50.72C-4.965,-51.484 2.608,-36.731 0,-34.03M-5.802,12.959L-11.094,-5.463L2.74,-3.447C0.263,-2.034 -1.141,16.171 -5.802,12.959M-13.086,-61.837C-24.117,-53.884 -25.266,-18.277 -22.583,-5.388C-20.675,3.774 -10.452,34.545 1.437,20.609C13.02,7.033 13.289,-28.411 7.674,-44.964C5.253,-52.101 -3.74,-68.575 -13.086,-61.837" style="fill:white;fill-rule:nonzero;"/>
            </g>
            <g transform="matrix(4.166667,0,0,4.166667,15257.675417,-2709.078333)">
                <path d="M0,15.775C3.986,20.263 6.359,23.206 13.076,22.983C7.189,44.894 -0.483,29.076 0,15.775M-2.458,8.349L3.03,-17.361C5.869,-19.289 13.727,-6.257 11.546,-3.941C2.524,-3.843 3.483,4.837 -2.458,8.349M1.813,-31.362C-0.058,-30.6 -6.78,-19.013 -7.602,-16.105C-12.253,0.338 -8.803,39.261 6.539,49.968C23.689,34.94 27.338,6.262 18.849,-14.525C16.713,-19.755 8.769,-34.193 1.813,-31.362" style="fill:white;fill-rule:nonzero;"/>
            </g>
            <g transform="matrix(4.166667,0,0,4.166667,15463.160417,-2620.36625)">
                <path d="M0,-18.381C-9.064,-9.913 -11.424,-3.676 0.46,3.646L-6.946,12.961C-11.977,12.181 -12.182,-24.143 -6.969,-29.421L0,-18.381ZM-6.652,21.795C16.182,7.625 11.213,-25.519 -8.055,-40.176C-15.56,-39.593 -23.975,16.542 -6.652,21.795" style="fill:white;fill-rule:nonzero;"/>
            </g>
            <g transform="matrix(4.166667,0,0,4.166667,15597.595417,-2683.9475)">
                <path d="M0,19.791C-9.662,16.797 -7.073,5.248 -5.628,-2.233C-4.123,-1.793 -1.565,-2.137 -0.683,-1.299C4.807,3.909 -7.835,4.284 -5.649,10.884C-4.795,15.121 3.444,12.445 0,19.791M-11.733,17.001C-3.143,41.442 18.414,14.432 3.078,-5.647C-9.146,-21.651 -15.605,5.984 -11.733,17.001" style="fill:white;fill-rule:nonzero;"/>
            </g>
            <g transform="matrix(-0.597589,4.12359,4.12359,0.597589,15712.452536,-2664.77924)">
                <path d="M8.174,-9.443C12.735,-9.443 16.433,-5.746 16.432,-1.184C16.432,3.377 12.735,7.075 8.174,7.074C3.612,7.074 -0.086,3.377 -0.085,-1.184C-0.085,-5.746 3.612,-9.444 8.174,-9.443" style="fill:white;fill-rule:nonzero;"/>
            </g>
            <g transform="matrix(4.166667,0,0,4.166667,13587.722083,-4036.145)">
                <path d="M0,2.228C3.762,-2.729 10.345,-6.256 16.6,-3.977C17.193,-1.212 17.181,1.81 19.191,4.118C21.801,7.117 26.975,6.393 27.18,9.705L0,2.228ZM45.523,-7.042L64.053,-0.813C66.214,2.294 62.751,2.025 61.267,2.715C58.937,3.8 44.578,7.903 43.521,6.773C46.71,2.428 47.322,-2.004 45.523,-7.042M38.207,19.313C53.375,17.659 93.445,3.716 63.348,-10.336C46.643,-18.136 17.4,-18.295 0.595,-10.38C-6.137,-7.21 -16.991,0.696 -11.118,9.024C-4.424,18.519 27.115,20.523 38.207,19.313" style="fill:white;fill-rule:nonzero;"/>
            </g>
            <g transform="matrix(4.166667,0,0,4.166667,13659.470833,-4188.002083)">
                <path d="M0,-8.172L3.716,-0.872L15.981,4.608C11.616,3.704 7.191,5.282 2.824,4.55C-13.959,1.741 -23.045,-3.859 0,-8.172M25.185,-2.802C26.231,-5.234 25.032,-7.521 25.172,-9.935L38.355,-3.619C32.832,1.606 25.588,3.914 17.982,3.131C19.245,-0.017 23.285,1.613 25.185,-2.802M-19.732,7.384C-5.733,14.956 37.558,12.72 49.405,1.874C51.356,0.089 53.467,-3.445 52.131,-6.094C36.756,-19.11 15.89,-23.128 -3.609,-18.513C-16.288,-15.513 -39.425,-3.267 -19.732,7.384" style="fill:white;fill-rule:nonzero;"/>
            </g>
            <g transform="matrix(4.166667,0,0,4.166667,13686.992083,-4346.03625)">
                <path d="M0,-8.315L9.425,-0.487C15.482,-1.357 19.669,-3.581 23.087,-8.594L30.122,-3.02C30.88,5.363 -4.875,1.676 -10.803,-1.028C-12.968,-3.445 -2.081,-8.658 0,-8.315M36.403,3.306C42.864,-3.196 32.456,-11.679 26.509,-14.225C11.412,-20.686 -15.581,-15.019 -21.677,0.905C-11.239,8.77 27.396,12.371 36.403,3.306" style="fill:white;fill-rule:nonzero;"/>
            </g>
            <g transform="matrix(4.166667,0,0,4.166667,13685.559583,-4516.669167)">
                <path d="M0,4.314L5.07,-0.203L11.233,6.025C15.317,6.654 18.355,1.909 18.584,-1.82L23.488,0.681C19.955,9.458 7.057,8.584 0,4.314M30.283,1.119C23.202,-13.391 -5.148,-9.447 -7.264,6.649C3.7,14.779 25.827,17.705 30.283,1.119" style="fill:white;fill-rule:nonzero;"/>
            </g>
            <g transform="matrix(4.166667,0,0,4.166667,13755.8575,-4551.323333)">
                <path d="M0,-24.83C-6.301,-25.436 -11.977,-17.454 -8.079,-11.672C0.201,0.606 16.582,-23.236 0,-24.83" style="fill:white;fill-rule:nonzero;"/>
            </g>
            <g transform="matrix(4.166667,0,0,4.166667,14784.2725,-1636.862083)">
                <path d="M0,-18.424C-0.759,-18.121 -10.768,-24.516 -15.468,-21.695C-10.033,-28.47 -1.799,-31.144 5.81,-34.499C5.459,-30.287 4.255,-20.122 0,-18.424M-38.038,12.157L-30.076,-6.117C-28.45,-7.008 -25.367,4.92 -20.97,4.061C-20.432,5.083 -36.554,14.267 -38.038,12.157M5.364,-46.594C-5.323,-46.025 -24.988,-30.016 -31.713,-21.723C-40.443,-10.957 -61.524,28.559 -32.709,20.333C-13.654,14.893 16.389,-14.9 16.512,-35.458C16.556,-42.687 12.66,-46.983 5.364,-46.594" style="fill:white;fill-rule:nonzero;"/>
            </g>
            <g transform="matrix(4.166667,0,0,4.166667,14820.77125,-1639.686667)">
                <path d="M0,31.111C-3.628,34.274 -8,36.662 -12.957,35.412C-12.932,32.434 -11.731,29.913 -10.572,27.257C-9.457,24.703 -6.214,18.131 -3.302,17.388C-4.908,23.127 -4.247,26.95 0,31.111M16.18,-0.991C28.128,-7.507 23.884,5.382 18.953,11.017C11.712,7.868 7.484,8.767 0.948,12.693C-0.523,10.495 13.851,0.28 16.18,-0.991M-23.179,46.15C6.262,48.273 40.068,16.434 33.114,-13.743C18.459,-17.162 5.259,-4.982 -3.989,5.07C-13.197,15.079 -26.1,32.186 -23.179,46.15" style="fill:white;fill-rule:nonzero;"/>
            </g>
            <g transform="matrix(4.166667,0,0,4.166667,14989.239167,-1436.6)">
                <path d="M0,-3.801C-13.031,-10.122 -17.455,-0.627 -16.373,11.393L-26.973,11.707C-28.648,4.511 0.766,-21.87 3.737,-17.403L0,-3.801ZM7.858,-27.367C-4.435,-23.105 -14.511,-16.549 -22.952,-6.656C-32.873,4.974 -44.301,23.566 -18.143,18.382C-1.462,15.076 15.777,-11.782 7.858,-27.367" style="fill:white;fill-rule:nonzero;"/>
            </g>
            <g transform="matrix(4.166667,0,0,4.166667,15069.414583,-1301.030833)">
                <path d="M0,-10.587L-8.29,-11.411L-12.97,-0.114C-20.317,-6.23 -0.717,-20.166 1.002,-17.503L0,-10.587ZM7.194,-23.679C-3.625,-26.905 -18.318,-15.899 -20.287,-5.539C-24.441,16.318 2.96,4.537 6.989,-12.629C7.839,-16.25 6.261,-20.035 7.194,-23.679" style="fill:white;fill-rule:nonzero;"/>
            </g>
            <g transform="matrix(4.166667,0,0,4.166667,15109.295417,-1203.360417)">
                <path d="M0,-18.265C-7.187,-17.591 -8.982,-2.463 -1.137,-1.052C10.785,1.092 11.637,-19.357 0,-18.265" style="fill:white;fill-rule:nonzero;"/>
            </g>
            <g transform="matrix(4.166667,0,0,4.166667,14875.802083,-3786.038333)">
                <path d="M0,-32.403L13.601,-28.663C6.513,-14.355 16.462,-13.575 28.608,-12.113L29.108,-1.691C25.808,1.042 -2.459,-24.414 0,-32.403M-9.768,-38.192C-13.256,-28.376 20.493,11.706 35.116,4.263C38.494,-13.231 30.752,-26.036 15.581,-34.022C11.439,-36.202 -7.666,-44.109 -9.768,-38.192" style="fill:white;fill-rule:nonzero;"/>
            </g>
            <g transform="matrix(4.166667,0,0,4.166667,15039.760833,-3934.8475)">
                <path d="M0,-12.187L-2.008,-5.413C2.539,2.587 11.063,-8.527 10.357,1.66C-0.36,1.918 -4.934,-4.574 -8.653,-13.44L0,-12.187ZM14.623,7.384C21.11,-8.532 2.269,-23.489 -12.901,-19.151C-17.098,-4.103 -0.107,11.302 14.623,7.384" style="fill:white;fill-rule:nonzero;"/>
            </g>
            <g transform="matrix(4.166667,0,0,4.166667,15127.233333,-4050.309167)">
                <path d="M0,11.467C14.091,16 15.827,-4.533 0.501,-2.231C-6.642,-1.158 -7.586,9.026 0,11.467" style="fill:white;fill-rule:nonzero;"/>
            </g>
            <g transform="matrix(4.166667,0,0,4.166667,14800.12,-3717.19)">
                <path d="M0,39.459C-5.991,44.894 -12.656,35.549 -18.609,34.072L-7.598,25.124L0,39.459ZM-35.03,19.34C-37.774,17.038 -49.427,-1.525 -46.732,-3.548L-31.692,2.208C-34.309,8.071 -34.589,13.128 -35.03,19.34M-51.224,-12.64C-65.859,-11.562 -56.608,7.634 -52.121,15.125C-41.259,33.262 -14.978,53.883 7.109,49.955C13.492,24.074 -27.001,-14.424 -51.224,-12.64" style="fill:white;fill-rule:nonzero;"/>
            </g>
            <g transform="matrix(4.166667,0,0,4.166667,14858.8025,-3825.075417)">
                <path d="M0,31.707C-2.556,30.59 -9.125,27.35 -9.869,24.437C-3.73,26.777 -1.348,22.207 3.816,21.094L8.154,34.092C5.177,34.067 2.655,32.867 0,31.707M-19.399,16.866C-21.934,14.188 -33.913,-0.861 -30.589,-3.317L-17.205,0.558C-18.371,8.599 -19.997,13.466 -14.565,20.187C-17.659,20.534 -17.858,18.494 -19.399,16.866M15.853,24.499C9.787,7.229 -13.887,-14.529 -33.057,-13.851C-35.066,-13.78 -39.782,-13.243 -40.979,-11.957C-47.868,8.738 -5.887,42.961 11.08,44.898C22.803,46.236 18.427,31.827 15.853,24.499" style="fill:white;fill-rule:nonzero;"/>
            </g>
            <g transform="matrix(4.166667,0,0,4.166667,13815.53125,-1287.76125)">
                <path d="M0,9.885C-1.11,9.47 -2.282,4.22 -4.38,2.012C-7.519,-1.293 -12.09,-1.237 -13.21,-4.497L15.704,3.23C12.247,6.444 4.56,11.59 0,9.885M-31.559,12.255L-48.224,5.407C-48.461,0.835 -33.097,-1.016 -29.555,-1.57C-32.059,3.389 -32.644,6.778 -31.559,12.255M-10.83,-14.757C-20.56,-15.179 -60.841,-7.28 -60.294,5.192C-59.423,25.064 5.536,24.777 20.852,12.166C43.498,-6.481 1.661,-14.215 -10.83,-14.757" style="fill:white;fill-rule:nonzero;"/>
            </g>
            <g transform="matrix(4.166667,0,0,4.166667,13859.571667,-1059.371667)">
                <path d="M0,-9.932L-11.269,-4.593C-12.898,-5.266 -12.923,-8.474 -13.956,-9.538C-15.427,-11.055 -17.361,-13.26 -19.295,-14.023C-22.578,-15.319 -29.452,-14.456 -29.801,-17.767C-25.506,-16.215 -20.539,-18.26 -16.572,-17.634C-13.269,-17.112 1.989,-13.236 0,-9.932M-38.996,-3.203L-52.327,-8.7C-53.839,-11.326 -34.896,-17.62 -31.792,-16.289C-36.295,-12.305 -39.202,-9.91 -38.996,-3.203M-22.093,-25.026C-35.781,-24.64 -61.296,-21.682 -66.679,-7.249C-44.312,10.254 -0.971,15.779 15.122,-11.828C7.234,-25.711 -7.979,-25.424 -22.093,-25.026" style="fill:white;fill-rule:nonzero;"/>
            </g>
            <g transform="matrix(4.166667,0,0,4.166667,13765.19375,-952.097917)">
                <path d="M0,6.692C-0.645,6.15 -0.151,2.78 -2.411,1.583C-12.905,-3.979 -17.805,7.863 -19.27,7.878C-21.868,8.163 -30.295,2.304 -27.525,-0.508C-23.531,-0.144 -15.193,-4.048 -12.061,-3.594L13.038,0.043C13.201,4.935 2.812,9.055 0,6.692M-36.392,0.584C-28.045,20.733 4.439,19.157 18.429,7.263C21.04,5.044 25.86,0.383 22.298,-3.017C14.416,-10.541 -29.66,-14.041 -36.392,0.584" style="fill:white;fill-rule:nonzero;"/>
            </g>
            <g transform="matrix(4.166667,0,0,4.166667,13751.737083,-796.390417)">
                <path d="M0,2.598C-0.314,2.315 0.957,-2.29 -5.252,-2.821C-9.846,-3.213 -15.502,9.03 -15.83,1.295C-16.016,-3.093 -7.003,-5.165 -3.445,-4.921C11.795,-3.876 3.376,5.638 0,2.598M-7.558,-10.312C-14.544,-10.041 -19.556,-6.159 -23.684,-0.791C-21.235,13.367 -1.48,12.454 8.027,6.415C24.125,-3.809 4.253,-10.769 -7.558,-10.312" style="fill:white;fill-rule:nonzero;"/>
            </g>
            <g transform="matrix(-4.123597,-0.597545,-0.597545,4.123597,13703.17541,-647.955656)">
                <path d="M-1.171,-16.239C3.337,-16.24 6.992,-12.585 6.991,-8.078C6.992,-3.57 3.337,0.085 -1.171,0.084C-5.678,0.085 -9.332,-3.57 -9.332,-8.078C-9.333,-12.585 -5.678,-16.239 -1.171,-16.239" style="fill:white;fill-rule:nonzero;"/>
            </g>
            <g transform="matrix(4.166667,0,0,4.166667,14069.76375,-4416.177083)">
                <path d="M0,51.029C-1.154,69.886 -12.08,79.12 -9.781,100.023C-6.13,133.209 23.666,145.507 49.628,123.639C72.422,104.44 71.378,84.993 76.706,58.62C78.107,51.683 88.185,33.716 78.865,31.529C76.278,32.941 68.528,77.958 59.275,86.952C57.489,88.687 56.911,89.138 54.816,87.287C53.406,86.042 44.465,60.838 42.789,76.154C41.694,86.157 43.941,95.837 36.216,104.609L29.523,103.086C21.962,75.456 52.145,55.016 57.753,31.174C64.396,2.935 55.637,-5.925 52.964,-30.19C50.756,-50.239 58.564,-69.044 73.208,-82.515C74.805,-83.983 83.573,-86.091 80.569,-90.168C77.394,-94.478 64.82,-82.947 62.478,-80.31C30.587,-44.421 58.484,-9.335 42.541,29.407C34.84,48.122 20.543,65.969 14.408,85.806C1.95,84.285 9.534,65.25 9.701,56.147C9.969,41.512 3.14,20.643 -5.268,8.669C-6.847,6.421 -20.089,-9.689 -21.125,-10.367C-24.321,-12.456 -25.611,-12.235 -28.261,-9.631C-12.978,9.788 1.657,23.96 0,51.029" style="fill:white;fill-rule:nonzero;"/>
            </g>
            <g transform="matrix(4.166667,0,0,4.166667,14504.24375,-4191.145417)">
                <path d="M0,58.036C-9,68.193 -25.292,79.996 -32.99,90.36C-34.111,91.871 -35.806,92.817 -35.413,95.288C-34.993,98.514 -3.22,110.559 0.646,102.334L52.596,47.824C54.005,45.277 46.923,41.016 45.805,40.854L20.706,37.217L84.771,-45.466L84.092,-52.523L-25.766,41.977C-24.199,49.633 2.423,51.77 0,58.036" style="fill:white;fill-rule:nonzero;"/>
            </g>
            <g transform="matrix(4.166667,0,0,4.166667,15151.655833,-3272.32)">
                <path d="M0,-88.93C-8.816,-47.75 -50.474,-50.855 -65.53,-23.545C-81.598,5.602 -64.989,27.05 -33.753,29.322C1.568,31.891 20.431,3.703 50.032,-8.291L48.643,-15.313C31.053,-5.146 13.48,8.312 -7.175,10.132L-2.213,-12.111C-8.207,-12.154 -7.851,-7.251 -11.127,-4.489C-18.609,1.816 -26.049,7.63 -36.358,4.136C-29.353,-19.186 2.751,-18.908 21.987,-24.174C61.116,-34.886 63.815,-75.762 90.733,-91.272C103.515,-98.637 121.468,-101.447 135.751,-98.167C135.953,-107.938 115.537,-105.838 108.479,-104.714C70.318,-98.64 63.292,-62.171 33.618,-45.804C24.853,-40.969 -18.863,-26.48 -29.173,-24.472C-31.71,-23.978 -34.062,-23.336 -36.661,-24.16C-44.122,-26.145 -19.256,-43.234 -17.932,-44.555C-0.071,-62.365 6.751,-87.585 8.839,-112.05C9.017,-114.15 9.477,-120.821 5.596,-120.539C-1.178,-118.345 1.337,-95.175 0,-88.93" style="fill:white;fill-rule:nonzero;"/>
            </g>
            <g transform="matrix(4.166667,0,0,4.166667,15202.729583,-3005.269167)">
                <path d="M0,-5.206L-53.18,-4.038C-55.155,-1.879 -42.997,22.094 -40.645,24.389C-38.046,26.924 -35.541,26.985 -32.189,27.299C-9.505,29.422 18.743,24.187 42.036,25.267L45.557,21.786L28.446,-6.345L130.461,-17.549L136.682,-21.578L129.312,-25.475L-8.107,-34.628C-12.475,-28.567 2.546,-7.88 0,-5.206" style="fill:white;fill-rule:nonzero;"/>
            </g>
            <g transform="matrix(4.166667,0,0,4.166667,12479.514583,-3866.642083)">
                <path d="M0,4.301C11.543,10.391 18.232,-0.068 14.581,-11.223L26.961,-11.197C26.517,-4.188 -0.905,22.58 -5.494,17.643L0,4.301ZM-9.612,27.614C9.8,21.481 32.334,4.568 33.168,-17.392C13.482,-23.313 -4.795,-7.185 -9.642,11.064C-10.414,13.973 -13.297,26.767 -9.612,27.614" style="fill:white;fill-rule:nonzero;"/>
            </g>
            <g transform="matrix(4.166667,0,0,4.166667,12435.408333,-3942.469167)">
                <path d="M0,-14.352L5.18,-13.615C5.345,-5.061 -2.258,4.586 -11.409,3.414C-9.833,-7.399 4.661,3.753 0,-14.352M-15.894,9.093C0.058,13.127 12.157,-2.372 10.85,-17.826C-4.541,-27.479 -20.351,-4.972 -15.894,9.093" style="fill:white;fill-rule:nonzero;"/>
            </g>
            <g transform="matrix(4.123582,0.597646,0.597646,-4.123582,12343.362524,-4024.597739)">
                <path d="M1.181,-0.085C5.731,-0.086 9.419,3.602 9.418,8.151C9.419,12.702 5.731,16.389 1.181,16.389C-3.368,16.389 -7.056,12.701 -7.055,8.152C-7.056,3.602 -3.369,-0.086 1.181,-0.085" style="fill:white;fill-rule:nonzero;"/>
            </g>
            <g transform="matrix(4.166667,0,0,4.166667,12677.900833,-3596.375)">
                <path d="M0,1.137C7.029,7.064 10.93,5.652 19.01,3.914C17.909,7.833 -5.288,19.216 -5.981,17.948L0,1.137ZM39.599,-28.457C40.382,-25.194 30.218,-8.767 28.221,-10.676L22.678,-21.198C27.675,-24.998 32.692,-30.097 39.599,-28.457M18.68,18.953C29.032,11.117 55.767,-23.618 47.313,-35.807C39.422,-47.183 6.862,-20.477 0.649,-13.459C-24.38,14.815 -20.114,48.32 18.68,18.953" style="fill:white;fill-rule:nonzero;"/>
            </g>
            <g transform="matrix(4.166667,0,0,4.166667,12669.75875,-3712.73125)">
                <path d="M0,-6.576L-6.972,-19.061L5.09,-23.505C10.261,-21.987 0.469,-9.151 0,-6.576M-14.461,8.153C-15.918,9.198 -28.821,17.028 -29.697,15.634L-26.194,2.777L-8.175,1.09C-6.684,3.137 -12.873,7.014 -14.461,8.153M12.471,-34.504C-11.346,-35.149 -42.381,-4.342 -40.527,19.866C-39.86,28.573 -34.607,27.139 -27.664,25.594C-12.074,22.125 13.054,-7.329 16.53,-22.731C17.725,-28.028 19.442,-34.316 12.471,-34.504" style="fill:white;fill-rule:nonzero;"/>
            </g>
            <g transform="matrix(4.166667,0,0,4.166667,12320.46,-2511.122083)">
                <path d="M0,-45.541C-0.974,-47.026 2.971,-64.302 9.395,-61.843L13.567,-41.803C9.083,-45.976 6.016,-46.828 0,-45.541M16.5,-25.463L9.025,1.721C7.366,2.969 -0.747,-12.097 0.908,-15.339C3.66,-14.723 5.948,-15.367 8.326,-16.785C12.383,-19.203 12.823,-24.231 16.5,-25.463M6.752,-74.091C-6.492,-74.985 -9.93,-34.549 -9.484,-25.344C-7.199,21.828 24.182,29.444 26.535,-22.916C27.015,-33.593 19.571,-73.227 6.752,-74.091" style="fill:white;fill-rule:nonzero;"/>
            </g>
            <g transform="matrix(4.166667,0,0,4.166667,12204.831667,-2523.954167)">
                <path d="M0,-34.107C-3.996,-37.307 -6.504,-39.771 -11.832,-37.59L-8.099,-51.182C-4.377,-53.699 2.05,-37.629 0,-34.107M-6.647,-0.568C-8.185,-1.917 -11.628,-10.041 -9.917,-12.294L-4.815,-14.657L2.457,-26.673C2.527,-21.985 0.301,5.531 -6.647,-0.568M-16.624,2.25C-1.628,31.328 8.61,3.118 9.72,-15.88C10.535,-29.818 7.481,-63.042 -9.485,-65.435C-21.727,-45.986 -27.742,-19.308 -16.624,2.25" style="fill:white;fill-rule:nonzero;"/>
            </g>
            <g transform="matrix(4.166667,0,0,4.166667,12047.655417,-2624.478333)">
                <path d="M0,-8.806C-0.028,-4.931 -1.673,16.21 -5.719,15.5L-11.76,2.327C0.643,1.329 -2.165,-12.772 -10.714,-18.124L-4.9,-26.727C-1.581,-26.264 0.023,-11.94 0,-8.806M-16.078,-23.132C-23.159,-6.347 -17.947,15.008 -3.736,26.352C9.149,19.694 9.344,-34.138 -3.728,-34.983C-6.427,-35.158 -14.849,-26.045 -16.078,-23.132" style="fill:white;fill-rule:nonzero;"/>
            </g>
            <g transform="matrix(4.166667,0,0,4.166667,11887.279583,-2700.136667)">
                <path d="M0,21.866C-10.675,17.46 -1.003,15.871 -0.786,15.321C1.435,9.695 -0.006,5.306 -6.382,5.026C0.063,-8.646 6.495,15.374 0,21.866M-3.423,-6.649C-16.636,-5.261 -14.828,27.434 -0.526,30.512C12.383,25.127 10.401,-8.102 -3.423,-6.649" style="fill:white;fill-rule:nonzero;"/>
            </g>
            <g transform="matrix(-0.597759,4.123566,4.123566,0.597759,11770.654122,-2700.44731)">
                <path d="M7.875,-9.098C12.269,-9.097 15.832,-5.535 15.832,-1.141C15.831,3.253 12.269,6.816 7.875,6.816C3.48,6.815 -0.082,3.253 -0.082,-1.141C-0.082,-5.535 3.481,-9.098 7.875,-9.098" style="fill:white;fill-rule:nonzero;"/>
            </g>
            <g transform="matrix(4.166667,0,0,4.166667,13434.065833,-647.172083)">
                <path d="M0,-160.726C-6.101,-196.541 -39.224,-200.064 -62.86,-176.8C-85.953,-154.07 -84.601,-118.752 -92.468,-89.353C-87.258,-81.213 -81.578,-114.58 -81.008,-116.358C-79.813,-120.09 -69.718,-145.1 -68.345,-145.939C-62.178,-149.704 -59.831,-127.732 -54.208,-127.991C-48.882,-128.236 -53.31,-137.212 -53.318,-139.427C-53.338,-145.098 -49.71,-160.096 -43.75,-161.55C-37.245,-163.137 -37.241,-158.271 -37.534,-152.749C-39.051,-124.102 -63.73,-108.927 -68.674,-83.308C-76.083,-44.91 -45.856,-18.254 -75.937,18.578C-80.393,24.034 -88.315,25.776 -89.007,33.094C-84.345,39.338 -66.116,15.943 -63.888,11.977C-48.894,-14.707 -59.118,-32.2 -57.795,-58.907C-56.249,-90.105 -35.04,-114.203 -23.074,-142.128C-12.5,-147.475 -19.298,-122.475 -19.368,-116.933C-19.689,-91.631 -7.995,-67.765 8.676,-49.905C11.153,-47.252 13.934,-45.212 17.744,-45.103C20.335,-46.884 0.198,-71.167 -1.682,-74.572C-21.836,-111.064 5.283,-129.711 0,-160.726" style="fill:white;fill-rule:nonzero;"/>
            </g>
            <g transform="matrix(4.166667,0,0,4.166667,13060.165417,-1141.84375)">
                <path d="M0,-38.277L-24.96,-48.944L12.462,-87.674C12.286,-90.37 -13.011,-98.229 -16.848,-98.184C-20.654,-98.14 -22.912,-95.244 -25.568,-93.164C-32.647,-87.621 -70.074,-49.451 -74.39,-42.798C-75.706,-40.77 -76.513,-38.662 -76.115,-36.213C-73.89,-36.228 -71.836,-33.841 -70.513,-33.466C-62.954,-31.324 -53.25,-31.722 -45.414,-29.828C-45.337,-27.242 -46.459,-25.646 -47.703,-23.592C-61.469,-0.846 -87.359,23.676 -103.358,46.567C-104.88,48.744 -113.43,58.285 -108.767,59.952L0.769,-33.133L0,-38.277Z" style="fill:white;fill-rule:nonzero;"/>
            </g>
            <g transform="matrix(4.166667,0,0,4.166667,12040.2875,-3024.568333)">
                <path d="M0,-38.127C21.003,-33.918 47.044,-11.261 68.626,-5.149L67.098,0.007C64.266,2.88 51.058,-1.196 46.017,-1.351C18.159,-2.203 -3.706,8.712 -24.302,26.436C-25.466,27.436 -33.096,33.888 -28.26,35.565C-25.124,36.652 -4.804,18.581 0.291,15.963C35.375,-2.06 52.537,21.296 81.149,18.815C122.06,15.267 127.892,-23.65 98.383,-48.227C78.582,-64.718 60.61,-63.956 37,-69.102C29.627,-70.709 22.826,-74.65 15.089,-74.779L14.362,-69.634C27.37,-64.633 42.715,-63.307 55.472,-57.858C58.475,-56.576 74.293,-48.841 70.941,-45.509C65.548,-46.237 45.227,-35.301 58.639,-33.902C65.561,-33.18 85.867,-34.222 87.086,-24.323C88.102,-16.062 73.606,-19.957 68.324,-21.153C44.787,-26.484 29.59,-47.804 5.539,-51.578C-33.419,-57.692 -58.269,-25.37 -97.016,-61.282C-99.616,-63.691 -103.773,-73.915 -107.34,-71.314C-112.342,-67.666 -98.889,-55.011 -96.134,-52.685C-62.102,-23.947 -36.479,-45.438 0,-38.127" style="fill:white;fill-rule:nonzero;"/>
            </g>
            <g transform="matrix(4.166667,0,0,4.166667,12354.235417,-3727.029167)">
                <path d="M0,95.896L6.23,98.101C7.751,97.326 13.156,78.96 14.827,75.46C15.703,73.626 14.111,72.22 17.861,73.28L56.806,108.999C60.446,108.465 65.36,83.051 67.239,78.22L7.761,20.579C4.615,19.54 5.52,20.606 4.456,22.321C-0.534,30.371 2.42,43.987 -3.046,52.606L-90.695,-13.103L-89.141,-5.789L0,95.896Z" style="fill:white;fill-rule:nonzero;"/>
            </g>
        </g>
    </g>
</svg>
