<?xml version="1.0" encoding="UTF-8" standalone="no"?>
<!DOCTYPE svg PUBLIC "-//W3C//DTD SVG 1.1//EN" "http://www.w3.org/Graphics/SVG/1.1/DTD/svg11.dtd">
<svg width="100%" height="100%" viewBox="0 0 3152 2245" version="1.1" xmlns="http://www.w3.org/2000/svg" xmlns:xlink="http://www.w3.org/1999/xlink" xml:space="preserve" xmlns:serif="http://www.serif.com/" style="fill-rule:evenodd;clip-rule:evenodd;stroke-linejoin:round;stroke-miterlimit:2;">
    <g transform="matrix(1,0,0,1,37484.78844,-7043.472732)">
        <g transform="matrix(1,0,0,1,-33007,12372)">
            <g transform="matrix(11.862995,0,0,11.862995,-3783.507128,-3926.258123)">
                <path d="M0,-61.164C-0.194,-61.272 -3.92,-61.797 -4.405,-61.782C-13.977,-61.495 -20.203,-52.653 -31.467,-57.81C-35.816,-59.8 -43.332,-71.717 -43.221,-76.551C-42.762,-96.511 -9.577,-116.518 8.302,-118.11C16.048,-118.8 46.728,-115.626 53.348,-112.402C58.48,-109.902 63.577,-104.341 69.973,-104.2C75.057,-104.088 78.772,-107.94 82.907,-108.786C85.254,-109.266 87.433,-108.843 89.736,-109.21C98.296,-110.573 103.558,-114.603 113.456,-113.879C127.821,-112.829 139.537,-112.725 153.52,-108.61C172.543,-103.012 193.345,-94.669 194.787,-71.903C196.325,-47.627 176.291,-49.636 158.846,-44.935C142.581,-40.551 125.189,-34.025 122.296,-14.998C119.985,0.204 130.083,10.375 117.981,24.813C103.22,42.424 70.909,47.804 49.204,51.539C31.404,54.602 4.921,57.636 -12.812,55.304C-22.861,53.983 -40.361,40.608 -46.298,32.578C-49.706,27.969 -54.13,18.881 -56.19,13.456C-66.609,-13.992 -39.598,-17.531 -25.608,-34.758C-18.176,-43.91 -16.635,-46.764 -6.227,-53.457C-5.074,-54.198 0.849,-57.305 1.077,-57.659C1.632,-58.521 0.538,-60.865 0,-61.164" style="fill:white;fill-rule:nonzero;"/>
            </g>
            <g transform="matrix(11.862995,0,0,11.862995,-1854.796495,-3068.334631)">
                <path d="M0,-109.287C8.288,-110.413 26.422,-106.922 33.086,-101.584C37.481,-98.063 42.947,-89.975 43.601,-84.294C45.268,-69.798 45.16,-53.247 39.349,-39.716C28.495,-14.446 20.112,-7.546 -7.094,-2.746C-19.073,-0.632 -35.216,1.126 -38.964,-13.818C-43.704,-32.712 -26.815,-38.856 -22.508,-54.426C-19.782,-64.282 -21.781,-67.727 -23.75,-76.783C-27.288,-93.049 -16.196,-107.087 0,-109.287" style="fill:white;fill-rule:nonzero;"/>
            </g>
        </g>
    </g>
</svg>
