<?xml version="1.0" encoding="UTF-8" standalone="no"?>
<!DOCTYPE svg PUBLIC "-//W3C//DTD SVG 1.1//EN" "http://www.w3.org/Graphics/SVG/1.1/DTD/svg11.dtd">
<svg width="100%" height="100%" viewBox="0 0 3514 3501" version="1.1" xmlns="http://www.w3.org/2000/svg" xmlns:xlink="http://www.w3.org/1999/xlink" xml:space="preserve" xmlns:serif="http://www.serif.com/" style="fill-rule:evenodd;clip-rule:evenodd;stroke-linejoin:round;stroke-miterlimit:2;">
    <g transform="matrix(1,0,0,1,44234.889366,-6019.01175)">
        <g transform="matrix(11.862995,0,0,11.862995,-42764.001984,9216.684704)">
            <path d="M0,-242.454C-6.683,-241.922 -13.431,-238.259 -18.928,-234.488C-32.118,-225.44 -36.452,-212.856 -52.864,-206.77C-72.631,-199.44 -80.825,-200.119 -95.813,-182.626C-108.624,-167.674 -102.638,-153.03 -101.553,-135.162C-100.67,-120.614 -102.508,-115.946 -96.212,-101.819C-92.471,-93.426 -84.559,-85.093 -84.584,-75.933C-84.643,-54.682 -88.926,-43.684 -73.449,-26.057C-62.64,-13.747 -51.544,-13.657 -37.162,-8.549C-27.102,-4.975 -23.385,-1.302 -11.793,-1.894C3.141,-2.657 13.146,-7.978 26.564,-10.684C44.657,-14.331 49.01,-2.891 63.31,2.197C84.461,9.722 119.062,7.494 126.031,-18.204C131.559,-38.59 127.582,-66.031 136.189,-85.415C140.524,-95.176 146.339,-104.324 149.126,-114.789C154.195,-133.825 157.638,-145.091 147.8,-163.288C143.827,-170.636 140.043,-176.673 132.389,-180.517C122.181,-185.644 107.979,-188.309 98.843,-195.931C81.08,-210.75 85.125,-234.267 62.238,-243.949C38.938,-253.805 23.175,-248.036 3.073,-235.456C-16.85,-222.988 -15.992,-216.435 -28.511,-199.341C-41.56,-181.523 -50.436,-190.295 -64.388,-180.819C-77.225,-172.1 -87.643,-156.389 -87.692,-140.618C-87.752,-120.909 -83.512,-111.81 -76.048,-94.783C-74.408,-91.042 -68.921,-77.713 -68.542,-74.432C-68.122,-70.782 -70.475,-64.453 -70.745,-60.242C-72.11,-38.909 -55.681,-28.524 -37.474,-22.743C-23.367,-18.263 -13.021,-15.806 2.037,-17.682C13.006,-19.048 21.444,-25.19 32.933,-24.243C39.722,-23.684 49.506,-20.338 55.621,-17.314C69.133,-10.631 71.76,-5.917 87.957,-10.945C109.378,-17.594 117.12,-26.595 120.184,-48.833C123.007,-69.322 121.456,-95.17 128.891,-114.473C130.936,-119.782 134.72,-124.516 136.897,-130.04C140.75,-139.818 145.582,-153.665 136.611,-161.77C125.814,-171.526 120.958,-172.42 107.588,-176.268C93.521,-180.316 74.214,-192.007 68.446,-206.032C67.175,-209.122 66.701,-212.693 65.396,-215.675C61.198,-225.267 47.445,-231.719 37.251,-230.895C19.094,-229.426 4.105,-217.072 -5.933,-202.754C-11.787,-194.405 -15.017,-181.1 -22.955,-175.048C-27.577,-171.524 -37.077,-172.088 -43.054,-170.969C-50.34,-169.604 -52.486,-169.125 -57.406,-163.561C-65.538,-154.365 -69.119,-143.905 -68.295,-131.549C-67.882,-125.365 -62.848,-110.512 -60.132,-104.654C-58.513,-101.16 -53.356,-95.79 -52.724,-92.72C-51.552,-87.024 -53.546,-81.319 -53.819,-75.956C-54.521,-62.178 -54.795,-52.024 -43.204,-43.005C-40.348,-40.783 -28.067,-34.492 -24.503,-33.296C-17.907,-31.084 2.459,-29.438 9.317,-30.349C15.914,-31.225 24.699,-35.056 31.888,-36.187C43.461,-38.006 44.045,-35.742 53.938,-32.555C62.763,-29.713 80.653,-27.366 89.171,-30.886C117.701,-42.672 104.447,-92.126 111.523,-116.126C115.738,-130.423 130.585,-139.072 124.371,-155.574C121.134,-164.169 103.826,-174.038 95.058,-175.826C86.954,-177.479 74.737,-176.153 67.851,-180.655C60.567,-185.418 60.355,-192.702 56.525,-199.552C51.804,-207.996 42.926,-216.139 32.481,-214.505C26.633,-213.591 12.848,-203.041 8.524,-198.573C-3.557,-186.091 -2.906,-170.069 -19.764,-160.976C-25.255,-158.014 -30.874,-158.154 -35.95,-154.194C-40.388,-150.731 -50.195,-137.731 -50.106,-132.21C-50.071,-130.031 -48.645,-127.472 -48.404,-125.448C-47.465,-117.55 -48.38,-112.395 -44.225,-104.846C-42.25,-101.257 -37.098,-96.439 -36.407,-92.717C-34.89,-84.536 -40.308,-80.017 -36.561,-70.803C-32.056,-59.728 -25.814,-56.039 -14.97,-52.5C-4.627,-49.125 5.531,-46.327 16.469,-48.583C21.403,-49.601 25.777,-52.649 31.12,-52.707C35.969,-52.76 40.798,-50.623 45.643,-50.251C51.526,-49.8 67.591,-48.88 72.798,-49.677C73.787,-49.828 84.611,-53.494 85.448,-53.951C89.25,-56.032 94.454,-65.57 94.891,-69.895C96.13,-82.161 93.35,-96.173 95.667,-108.407C98.484,-123.278 114.908,-143.487 104.227,-158.4C101.844,-161.727 91.068,-166.444 86.843,-168.215C77.436,-172.16 67.395,-170.766 59.02,-174.846C50.751,-178.876 47.209,-189.284 36.572,-190.479C28.499,-191.386 14.071,-188.203 7.57,-183.207C2.773,-179.52 1.617,-175.146 -1.566,-170.583C-14.776,-151.654 -34.941,-148.539 -36.292,-121.291C-36.385,-119.416 -36.5,-116.422 -36.228,-114.656C-35.284,-108.527 -27.488,-108.522 -27.774,-98.883C-27.977,-92.056 -29.145,-89.242 -26.281,-82.291C-23.749,-76.142 -10.697,-60.198 -4.649,-57.381C7.186,-51.87 11.394,-61.436 22.674,-62.326C30.866,-62.971 46.674,-59.778 53.188,-62.033C55.364,-62.787 56.941,-64.656 58.818,-65.47C66.148,-68.653 70.176,-68.688 76.142,-75.346C86.027,-86.379 81.746,-88.135 83.558,-100.57C84.995,-110.435 91.483,-120.797 89.917,-130.792C87.275,-147.665 72.121,-164.65 56.834,-171.451C46.211,-176.176 21.022,-177.309 10.929,-171.386C4.45,-167.584 -3.124,-158.452 -8.447,-152.682C-17.526,-142.841 -25.574,-113.625 -22.074,-101.006C-18.819,-89.272 -6.653,-77.597 4.521,-73.2C13.406,-69.703 21.404,-69.266 30.554,-69.007C37.015,-68.824 38.753,-67.539 45.358,-70.468C60.149,-77.027 74.994,-91.581 76.183,-108.549C77.461,-126.778 71.241,-143.721 57.102,-155.399C29.378,-178.298 -13.468,-149.373 -5.016,-113.228C2.329,-81.812 32.18,-73.383 55.616,-95.872C82.338,-121.514 37.35,-169.841 15.468,-137.833C11.138,-131.498 7.816,-121.372 10.759,-113.892C13.688,-106.449 26.246,-99.946 34.008,-101.165C40.757,-102.225 48.571,-109.448 48.924,-116.512C49.243,-122.898 42.568,-132.99 35.791,-133.531C30.46,-133.957 20.925,-126.102 23.283,-120.974C23.52,-120.459 27.262,-116.696 27.801,-117.34C28.65,-119.772 25.899,-120.627 25.486,-122C24.175,-126.361 32.41,-132.371 37.316,-130.776C43.558,-128.746 48.167,-118.472 45.267,-112.266C41.436,-104.065 32.24,-101.98 24.371,-105.139C10.561,-110.682 9.029,-121.987 16.008,-134.272C34.372,-166.6 75.548,-124.744 56.803,-100.729C45.612,-86.392 23.135,-78.477 8.75,-93.144C-15.364,-117.732 -2.641,-158.164 32.347,-160.848C64.36,-163.304 83.758,-118.988 69.161,-93.812C64.362,-85.535 49.486,-72.813 39.922,-71.069C13.993,-66.341 -23.851,-83.118 -20.384,-113.845C-19.749,-119.471 -16.819,-132.051 -14.946,-137.421C-12.168,-145.385 -0.553,-158.548 5.728,-164.498C8.469,-167.096 13.607,-170.955 17.28,-171.684C32.591,-174.723 50.369,-173.761 63.672,-164.992C74.479,-157.868 85.45,-143.876 87.5,-130.792C88.902,-121.841 82.616,-109.881 81.141,-100.57C80.182,-94.518 82.496,-89.467 79.297,-83.676C73.255,-72.737 68.172,-72.074 57.879,-67.618C54.733,-66.256 52.832,-63.49 48.657,-63.492C38.186,-63.497 26.829,-66.443 16.429,-63.735C7.58,-61.431 5.352,-53.641 -6.005,-60.861C-9.91,-63.344 -21.922,-78.015 -23.873,-82.282C-27.081,-89.296 -25.341,-93.335 -25.333,-100.108C-25.323,-108.931 -33.095,-110.707 -33.815,-115.256C-34.587,-120.139 -33.03,-130.805 -30.938,-135.279C-25.018,-147.939 -13.75,-152.511 -5.131,-162.059C0.983,-168.832 4.213,-179.414 12.274,-183.338C19.256,-186.737 29.39,-189.063 37.12,-188.004C45.149,-186.905 50.088,-177.186 56.799,-173.229C63.603,-169.218 72.125,-170.22 79.336,-168.567C82.426,-167.859 99.968,-159.756 101.791,-157.777C112.689,-145.939 95.354,-121.107 93.156,-107.897C91.112,-95.611 93.794,-81.969 92.484,-69.884C92.108,-66.422 87.627,-58.265 84.849,-56.363C84.295,-55.984 73.174,-52.247 72.179,-52.11C66.302,-51.298 51.409,-52.145 45.041,-52.671C40.58,-53.04 35.51,-55.175 31.133,-55.13C25.745,-55.075 21.387,-52.066 16.455,-51.015C6.909,-48.982 0.692,-50.423 -8.459,-52.967C-20.248,-56.244 -31.361,-60.365 -35.089,-73.484C-36.897,-79.846 -32.801,-86.101 -33.886,-92.82C-34.527,-96.789 -39.728,-101.782 -41.809,-105.448C-45.989,-112.816 -45.095,-117.053 -46.012,-124.818C-46.284,-127.12 -47.758,-130.296 -47.766,-132.143C-47.785,-136.408 -39.323,-148.265 -35.946,-151.168C-30.368,-155.964 -25.506,-155.345 -19.533,-158.328C-0.625,-167.773 -1.891,-186.104 12.685,-199.248C23.562,-209.057 36.617,-218.871 49.269,-205.593C59.213,-195.159 56.996,-178.889 74.315,-175.634C84.85,-173.654 93.514,-175.097 103.765,-170.027C109.723,-167.08 119.667,-161.351 122.112,-155.13C127.793,-140.679 115.815,-133.384 111.109,-121.979C101.451,-98.573 112.881,-57.655 97.297,-39.684C88.95,-30.059 75.701,-30.157 63.934,-32.276C57.789,-33.382 45.758,-39.406 41.405,-39.414C39.247,-39.418 34.073,-38.933 31.889,-38.604C24.223,-37.449 11.927,-32.197 5.135,-32.113C1.094,-32.063 -7.407,-32.923 -11.781,-33.326C-23.268,-34.384 -42.19,-42.153 -48.621,-52.094C-53.77,-60.056 -50.78,-74.815 -50.177,-83.798C-49.224,-97.986 -53.944,-96.121 -58.32,-106.466C-66.394,-125.55 -70.848,-142.94 -56.801,-160.538C-51.843,-166.75 -50.896,-166.997 -43.041,-168.538C-37.673,-169.591 -30.848,-169.403 -25.967,-170.806C-15.188,-173.904 -10.515,-191.733 -4.723,-200.336C8.513,-219.999 35.512,-239.01 57.985,-221.563C64.612,-216.418 63.966,-208.844 67.587,-202.151C74.147,-190.025 92.117,-178.184 105.178,-174.462C112.299,-172.432 118.065,-172.284 124.71,-168.003C126.65,-166.753 135.392,-160.154 136.612,-158.749C142.756,-151.671 137.04,-136.052 133.687,-128.414C131.848,-124.225 128.797,-120.428 127.077,-116.286C119.046,-96.945 120.687,-69.597 117.766,-48.833C114.716,-27.145 107.175,-18.953 86.154,-12.747C69.195,-7.741 64.062,-17.265 49.881,-22.454C42.698,-25.081 32.206,-27.542 24.636,-26.514C19.793,-25.856 13.98,-22.785 9.064,-21.536C-8.822,-16.991 -22.8,-20.249 -39.751,-25.907C-50.714,-29.566 -67.045,-39.776 -68.297,-52.365C-68.989,-59.331 -67.2,-63.717 -66.552,-69.952C-65.87,-76.526 -70.337,-87.273 -73.033,-93.567C-80.688,-111.433 -85.749,-121.085 -85.253,-141.849C-84.923,-155.667 -76.123,-168.671 -65.569,-177.164C-55.316,-185.415 -43.979,-181.759 -35.051,-188.957C-21.253,-200.08 -18.934,-216.792 -3.574,-228.2C16.58,-243.169 36.02,-252.087 60.851,-241.957C81.999,-233.33 77.954,-216.208 89.753,-201.952C102.218,-186.89 115.176,-186.343 130.966,-178.489C143.921,-172.045 154.189,-149.494 151.435,-135.449C149.93,-127.774 147.66,-117.011 145.078,-109.771C141.503,-99.75 133.637,-88.696 131.074,-79.045C126.27,-60.953 129.245,-21.3 118.458,-8.248C106.99,5.63 79.383,5.648 63.745,-0.051C47.805,-5.861 45.213,-17.508 24.172,-12.471C11.747,-9.497 2.37,-5.016 -11.188,-4.312C-22.528,-3.723 -23.987,-6.34 -33.536,-9.757C-51.166,-16.064 -63.879,-15.771 -75.444,-32.524C-86.447,-48.464 -82.319,-58.141 -82.152,-75.935C-82.061,-85.689 -88.63,-91.435 -92.585,-99.401C-99.816,-113.964 -98.215,-118.603 -99.135,-133.953C-100.318,-153.687 -106.8,-167.088 -92.186,-183.23C-77.835,-199.082 -69.053,-197.946 -51.062,-204.968C-33.567,-211.796 -27.149,-228.684 -10.907,-236.742C-7.606,-238.38 -3.849,-239.418 -0.36,-240.591L0,-242.454ZM41.584,-269.473C57.948,-270.596 81.278,-259.292 92.114,-247.229C102.379,-235.802 104.668,-229.238 118.393,-219.713C140.647,-204.269 153.719,-191.227 166.537,-166.915C177.193,-146.704 170.201,-128.269 165.794,-107.188C163.017,-93.91 158.555,-80.474 158.975,-66.872C159.853,-38.449 164.544,-7.051 139.911,13.809C126.638,25.049 103.852,28.142 87.376,23.465C82.767,22.157 78.827,19.239 74.213,17.89C66.866,15.741 61.812,15.596 53.965,12.752C40.89,8.013 13.086,17.662 -2.091,18.688C-12.189,19.37 -21.285,17.644 -31.135,16.855C-48.034,15.502 -57.493,16.066 -72.939,7.282C-98.027,-6.985 -99.895,-21.741 -97.943,-49.36C-97.619,-53.949 -95.423,-58.529 -96.886,-63.07C-101.529,-74.033 -111.756,-85.035 -116.344,-95.589C-124.298,-113.884 -126.539,-144.46 -120.714,-163.403C-114.632,-183.183 -101.402,-205.786 -83.228,-216.583C-76.22,-220.747 -64.528,-223.27 -56.568,-224.376C-49.206,-225.399 -33.939,-241.413 -27.036,-246.222C-22.285,-249.532 -8.091,-256.559 -2.406,-259.068C11.095,-265.026 26.835,-268.461 41.584,-269.473" style="fill:white;fill-rule:nonzero;"/>
        </g>
    </g>
</svg>
